<svg xmlns="http://www.w3.org/2000/svg" width="20" height="20" viewBox="0 0 20 20"><title>add_20-20</title><path d="M10,0A10,10,0,1,0,20,10,10,10,0,0,0,10,0Zm0,17.64706A7.84571,7.84571,0,0,1,2.20589,9.85294,7.72041,7.72041,0,0,1,9.99894,2.20587H10A7.84571,7.84571,0,0,1,17.79411,10,7.72041,7.72041,0,0,1,10.001,17.64707H10Z" fill="#2ec1d9"/><path d="M12.94117,8.82353h-1.7647V6.91176a1.15991,1.15991,0,0,0-1.14311-1.17647q-0.01667-.00023-0.03336,0A1.04207,1.04207,0,0,0,8.97059,6.91177V8.82353H7.05883a1.0052,1.0052,0,0,0-1.02941.98039h0q-0.0006.0245,0,.049a1.13651,1.13651,0,0,0,1.02941,1.17647H8.97059v1.7647a1.15991,1.15991,0,0,0,1.14311,1.17647q0.01667,0.00024.03336,0a1.04207,1.04207,0,0,0,1.02941-1.17647v-1.7647h1.7647A1.15991,1.15991,0,0,0,14.11764,9.8863q0.00024-.01667,0-0.03336A1.04207,1.04207,0,0,0,12.94117,8.82353Z" fill="#2ec1d9"/></svg>