<svg xmlns="http://www.w3.org/2000/svg" width="14" height="14" viewBox="0 0 14 14"><title>add_14-14</title><path d="M7,0a7,7,0,1,0,7,7A7,7,0,0,0,7,0ZM7,12.35294A5.492,5.492,0,0,1,1.54412,6.89706,5.40429,5.40429,0,0,1,6.99926,1.54411H7A5.492,5.492,0,0,1,12.45588,7a5.40429,5.40429,0,0,1-5.45515,5.35295H7Z" fill="#2ec1d9"/><path d="M9.05882,6.17647H7.82353V4.83823a0.81194,0.81194,0,0,0-.80018-0.82353Q7.01168,4.01454,7,4.01471a0.72945,0.72945,0,0,0-.72059.82353V6.17647H4.94118a0.70364,0.70364,0,0,0-.72059.68628q-0.00042.01715,0,.03431a0.79556,0.79556,0,0,0,.72059.82353H6.27941V8.95588a0.81194,0.81194,0,0,0,.80018.82353q0.01167,0.00017.02335,0a0.72945,0.72945,0,0,0,.72059-0.82353V7.72059H9.05882a0.81194,0.81194,0,0,0,.82353-0.80018q0.00017-.01167,0-0.02335A0.72945,0.72945,0,0,0,9.05882,6.17647Z" fill="#2ec1d9"/></svg>