<svg xmlns="http://www.w3.org/2000/svg" width="20" height="20" viewBox="0 0 20 20"><title>add_20-20_hover</title><path d="M10,0A10,10,0,1,0,20,10,10,10,0,0,0,10,0Zm2.94117,11.02941h-1.7647v1.7647a1.15991,1.15991,0,0,1-1.14311,1.17647q-0.01667.00024-.03336,0a1.04207,1.04207,0,0,1-1.02941-1.17647V10.88236H7.05883A1.15991,1.15991,0,0,1,5.88236,9.73924q-0.00024-.01667,0-0.03336A1.08236,1.08236,0,0,1,7.05883,8.52941H8.97059V6.91176A1.15991,1.15991,0,0,1,10.1137,5.73529q0.01667-.00024.03336,0a1.08236,1.08236,0,0,1,1.17647,1.17647V8.82353h1.61764a1.15991,1.15991,0,0,1,1.17647,1.14311q0.00024,0.01667,0,.03336A1.04209,1.04209,0,0,1,12.94117,11.02941Z" fill="#2ec1d9"/></svg>