<svg xmlns="http://www.w3.org/2000/svg" width="12" height="12" viewBox="0 0 12 12"><title>add_12-12_hover</title><path d="M6,0a6,6,0,1,0,6,6A6.00615,6.00615,0,0,0,6,0ZM7.76471,6.61765H6.70588V7.67647A0.696,0.696,0,0,1,6,8.38235a0.62525,0.62525,0,0,1-.61765-0.70588V6.52941H4.23529a0.696,0.696,0,0,1-.70588-0.70588,0.64939,0.64939,0,0,1,.70588-0.70588H5.38235V4.14706a0.696,0.696,0,0,1,.70588-0.70588,0.64939,0.64939,0,0,1,.70588.70588V5.29412H7.76471A0.696,0.696,0,0,1,8.47059,6,0.62525,0.62525,0,0,1,7.76471,6.61765Z" fill="#2ec1d9"/></svg>