<svg xmlns="http://www.w3.org/2000/svg" width="14" height="14" viewBox="0 0 14 14"><title>add_14-14_hover</title><path d="M7,0a7,7,0,1,0,7,7A7,7,0,0,0,7,0ZM9.05882,7.72059H7.82353V8.95588a0.81194,0.81194,0,0,1-.80018.82353q-0.01167.00017-.02335,0a0.72945,0.72945,0,0,1-.72059-0.82353V7.61765H4.94118a0.81194,0.81194,0,0,1-.82353-0.80018q-0.00017-.01167,0-0.02335a0.75765,0.75765,0,0,1,.82353-0.82353H6.27941V4.83823a0.81194,0.81194,0,0,1,.80018-0.82353q0.01167-.00017.02335,0a0.75765,0.75765,0,0,1,.82353.82353V6.17647H9.05882a0.81194,0.81194,0,0,1,.82353.80018q0.00017,0.01167,0,.02335A0.72946,0.72946,0,0,1,9.05882,7.72059Z" fill="#2ec1d9"/></svg>