<svg xmlns="http://www.w3.org/2000/svg" width="12.00009" height="14" viewBox="0 0 12.00009 14"><title>bug_hover</title><rect x="0.00009" width="12" height="14" fill="none"/><path d="M11.57422,8.23032H9.572V6.04659L11.17172,4.4031a0.44356,0.44356,0,0,0,0-.61555A0.41558,0.41558,0,0,0,10.58411,3.776l-0.01154.01154L9.0387,5.36328A3.13381,3.13381,0,0,0,6.90212,2.85139L8.954,0.74312a0.44365,0.44365,0,0,0,0-.61562A0.41571,0.41571,0,0,0,8.36621.11614L8.35485,0.1275,6.01137,2.53513,3.68778,0.148A0.41616,0.41616,0,0,0,3.09934.13718L3.08856,0.148a0.44406,0.44406,0,0,0,0,.61584L5.12062,2.85139A3.13421,3.13421,0,0,0,2.984,5.36328L1.45049,3.78755A0.41558,0.41558,0,0,0,.86288,3.776l-0.01154.01154a0.44392,0.44392,0,0,0,0,.61584l1.59944,1.6432V8.23032h-2.027a0.43548,0.43548,0,0,0,0,.87065H2.45106a3.70509,3.70509,0,0,0,.59145,2.00459L1.04859,13.154a0.4442,0.4442,0,0,0,0,.61562,0.41591,0.41591,0,0,0,.58808.01135L1.648,13.76966,3.59315,11.771a3.48332,3.48332,0,0,0,4.8238.01248l1.93326,1.98616a0.41558,0.41558,0,0,0,.58761.01154l0.01154-.01154a0.44365,0.44365,0,0,0,0-.61562L8.97055,11.12115A3.70628,3.70628,0,0,0,9.57168,9.101h2.00254a0.43548,0.43548,0,0,0,0-.87065m-5.56285-4.644A2.23914,2.23914,0,0,1,8.18962,5.431H3.83284A2.23967,2.23967,0,0,1,6.01137,3.58629M3.29823,9.08906V6.30169H5.58764v5.54072A2.76979,2.76979,0,0,1,3.29823,9.08906M6.4351,11.84241V6.30169H8.72451V9.08906A2.76979,2.76979,0,0,1,6.4351,11.84241" transform="translate(0.00009 0.03321)" fill="#43c9e0"/></svg>