<svg version="1.1" id="Layer_2" xmlns="http://www.w3.org/2000/svg" xmlns:xlink="http://www.w3.org/1999/xlink" x="0px" y="0px"
	 width="34px" height="34px" viewBox="0 0 34 34" enable-background="new 0 0 34 34" xml:space="preserve">
<path fill="#4B4B4B" d="M17,0C7.6,0,0,7.6,0,17c0,9.4,7.6,17,17,17s17-7.6,17-17C34,7.6,26.4,0,17,0z M20.8,19.6
	c0.3,0.3,0.3,0.8,0,1.2c-0.3,0.3-0.8,0.3-1.2,0L17,18.2l-2.6,2.6c-0.3,0.3-0.8,0.3-1.2,0c-0.3-0.3-0.3-0.8,0-1.2l2.6-2.6l-2.6-2.6
	c-0.3-0.3-0.3-0.8,0-1.2c0.3-0.3,0.8-0.3,1.2,0l2.6,2.6l2.6-2.6c0.3-0.3,0.8-0.3,1.2,0c0.3,0.3,0.3,0.8,0,1.2L18.2,17L20.8,19.6z"/>
</svg>
