<svg xmlns="http://www.w3.org/2000/svg" width="10.12291" height="10.01163" viewBox="0 0 10.12291 10.01163"><title>Close_Cross</title><path d="M6.758,4.997L9.75,2.039A1.188,1.188,0,0,0,9.76393.35895L9.75,0.345a1.222,1.222,0,0,0-1.714,0L5.044,3.303,2.051,0.35A1.222,1.222,0,0,0,.337.35,1.188,1.188,0,0,0,.32306,2.03L0.337,2.04395,3.329,5.002l-2.992,2.959A1.188,1.188,0,0,0,.32306,9.641L0.337,9.65491a1.222,1.222,0,0,0,1.714,0l2.992-2.958L8.031,9.65a1.222,1.222,0,0,0,1.714,0A1.188,1.188,0,0,0,9.75893,7.97L9.745,7.95605Z" transform="translate(0.01796 0.00584)" fill="#474747"/></svg>