<svg xmlns="http://www.w3.org/2000/svg" width="12.834" height="11.248" viewBox="0 0 12.834 11.248"><title>Coin_stack_blue</title><path d="M3.729,6.523a8.10007,8.10007,0,0,0,1.039-.066V2.891a8.12227,8.12227,0,0,0-1.039-.066C1.669,2.825,0,3.572,0,4.493V4.855C0,5.78,1.669,6.523,3.729,6.523Zm0,1.862a8.12219,8.12219,0,0,0,1.039-.066V7.274a8.10007,8.10007,0,0,1-1.039.066c-1.8,0-3.3-.569-3.651-1.326A0.80814,0.80814,0,0,0,0,6.356V6.718C0,7.638,1.669,8.38,3.729,8.38V8.385ZM4.768,9.217V9.136a8.12115,8.12115,0,0,1-1.039.066c-1.8,0-3.3-.569-3.651-1.326A0.8091,0.8091,0,0,0,0,8.218V8.58c0,0.921,1.669,1.668,3.729,1.668a8.00793,8.00793,0,0,0,1.178-.085A1.3,1.3,0,0,1,4.768,9.58V9.217ZM9.105,0C7.046,0,5.376.747,5.376,1.668V2.03c0,0.921,1.67,1.668,3.729,1.668s3.729-.747,3.729-1.668V1.668C12.834,0.747,11.16,0,9.105,0Zm0,4.515c-1.8,0-3.3-.569-3.65-1.326a0.794,0.794,0,0,0-.079.342V3.893c0,0.921,1.67,1.668,3.729,1.668s3.729-.747,3.729-1.668V3.53a0.80868,0.80868,0,0,0-.079-0.342C12.403,3.946,10.902,4.515,9.105,4.515Zm0,1.862c-1.8,0-3.3-.569-3.65-1.327a0.80009,0.80009,0,0,0-.079.342V5.754c0,0.921,1.67,1.668,3.729,1.668s3.729-.747,3.729-1.668V5.393a0.81012,0.81012,0,0,0-.079-0.342c-0.352.757-1.853,1.329-3.65,1.329V6.377Zm0,1.962c-1.8,0-3.3-.569-3.65-1.326a0.8001,0.8001,0,0,0-.079.342V7.717c0,0.921,1.67,1.668,3.729,1.668s3.729-.747,3.729-1.668V7.355a0.81011,0.81011,0,0,0-.079-0.342c-0.352.758-1.853,1.327-3.65,1.327V8.339Zm0,1.862c-1.8,0-3.3-.569-3.65-1.326a0.794,0.794,0,0,0-.079.342V9.58c0,0.921,1.67,1.668,3.729,1.668s3.729-.747,3.729-1.668V9.217A0.80907,0.80907,0,0,0,12.76,8.88c-0.357.753-1.858,1.322-3.655,1.322V10.201Z" transform="translate(-0.00002)" fill="#2dc3dc"/></svg>