<svg xmlns="http://www.w3.org/2000/svg" width="12.83401" height="11.248" viewBox="0 0 12.83401 11.248"><title>Coin stack</title><path d="M3.744,6.512a8.1001,8.1001,0,0,0,1.039-.066V2.88a8.12221,8.12221,0,0,0-1.039-.066c-2.06,0-3.729.747-3.729,1.668V4.844C0.015,5.769,1.684,6.512,3.744,6.512Zm0,1.862a8.12221,8.12221,0,0,0,1.039-.066V7.263a8.1001,8.1001,0,0,1-1.039.066c-1.8,0-3.3-.569-3.651-1.326a0.80814,0.80814,0,0,0-.078.342V6.707c0,0.92,1.669,1.662,3.729,1.662V8.374ZM4.783,9.206V9.125a8.12117,8.12117,0,0,1-1.039.066c-1.8,0-3.3-.569-3.651-1.326a0.8091,0.8091,0,0,0-.078.342V8.569c0,0.921,1.669,1.668,3.729,1.668a8.008,8.008,0,0,0,1.178-.085,1.3,1.3,0,0,1-.139-0.583V9.206ZM9.12-.011c-2.059,0-3.729.747-3.729,1.668V2.019c0,0.921,1.67,1.668,3.729,1.668s3.729-.747,3.729-1.668V1.657C12.849,0.736,11.175-.011,9.12-0.011Zm0,4.515c-1.8,0-3.3-.569-3.65-1.326a0.794,0.794,0,0,0-.079.342V3.882c0,0.921,1.67,1.668,3.729,1.668s3.729-.747,3.729-1.668V3.519a0.80868,0.80868,0,0,0-.079-0.342C12.418,3.935,10.917,4.504,9.12,4.504Zm0,1.862c-1.8,0-3.3-.569-3.65-1.327a0.80009,0.80009,0,0,0-.079.342V5.743c0,0.921,1.67,1.668,3.729,1.668s3.729-.747,3.729-1.668V5.382A0.81012,0.81012,0,0,0,12.77,5.04c-0.352.757-1.853,1.329-3.65,1.329V6.366Zm0,1.962c-1.8,0-3.3-.569-3.65-1.326a0.8001,0.8001,0,0,0-.079.342V7.706c0,0.921,1.67,1.668,3.729,1.668s3.729-.747,3.729-1.668V7.344a0.8101,0.8101,0,0,0-.079-0.342c-0.352.758-1.853,1.327-3.65,1.327V8.328Zm0,1.862c-1.8,0-3.3-.569-3.65-1.326a0.794,0.794,0,0,0-.079.342V9.569c0,0.921,1.67,1.668,3.729,1.668s3.729-.747,3.729-1.668V9.206a0.80907,0.80907,0,0,0-.074-0.337c-0.357.753-1.858,1.322-3.655,1.322V10.19Z" transform="translate(-0.01498 0.011)" fill="#888988"/></svg>