<svg xmlns="http://www.w3.org/2000/svg" width="19.7" height="19.7" viewBox="0 0 19.7 19.7"><title>correction_white</title><circle cx="9.85" cy="9.85" r="9" fill="none" stroke="#fff" stroke-width="1.7"/><path d="M6.249,6H5.41721A0.394,0.394,0,0,0,5,6.41721V7.249a0.394,0.394,0,0,0,.41721.41721H6.249A0.394,0.394,0,0,0,6.66623,7.249V6.41721A0.394,0.394,0,0,0,6.249,6" fill="#fff"/><path d="M6.249,9.33247H5.41721A0.39422,0.39422,0,0,0,5,9.74967v0.83442a0.39422,0.39422,0,0,0,.41721.41721H6.249a0.39422,0.39422,0,0,0,.41721-0.41721V9.74967A0.39422,0.39422,0,0,0,6.249,9.33247" fill="#fff"/><path d="M6.249,12.66754H5.41721A0.394,0.394,0,0,0,5,13.08474v0.83181a0.394,0.394,0,0,0,.41721.41721H6.249a0.394,0.394,0,0,0,.41721-0.41721V13.08474A0.394,0.394,0,0,0,6.249,12.66754" fill="#fff"/><path d="M14.58279,6H8.74967a0.39422,0.39422,0,0,0-.41721.41721V7.249a0.39422,0.39422,0,0,0,.41721.41721h5.83312A0.394,0.394,0,0,0,15,7.249V6.41721A0.394,0.394,0,0,0,14.58279,6" fill="#fff"/><path d="M14.58279,9.33247H8.74967a0.3945,0.3945,0,0,0-.41721.41721v0.83442a0.39449,0.39449,0,0,0,.41721.41721h5.83312A0.39422,0.39422,0,0,0,15,10.58409V9.74967a0.39422,0.39422,0,0,0-.41721-0.41721" fill="#fff"/><path d="M14.58279,12.66754H8.74967a0.39422,0.39422,0,0,0-.41721.41721v0.83181a0.39422,0.39422,0,0,0,.41721.41721h5.83312A0.394,0.394,0,0,0,15,13.91656V13.08474a0.394,0.394,0,0,0-.41721-0.41721" fill="#fff"/><rect x="5" y="6" width="10" height="8.33377" fill="none"/></svg>