<svg xmlns="http://www.w3.org/2000/svg" width="11.07805" height="14.01031" viewBox="0 0 11.07805 14.01031"><title>del</title><path d="M10.114,1.645H8.243V0.429a0.435,0.435,0,0,0-.436-0.43405L7.801-.005a0.063,0.063,0,0,0-.047.016A0.06116,0.06116,0,0,0,7.722-.005H3.261A0.428,0.428,0,0,0,2.827.4169q-0.00009.006,0,.01208V1.645h-1.879a0.944,0.944,0,0,0-.956.93185c-0.00006.00772-.00006,0.01541,0,0.02313V4.163h0.829v8.895a0.93105,0.93105,0,0,0,.91473.947c0.011,0.00018.02216,0.00018,0.03326,0h7.524a0.938,0.938,0,0,0,.95587-0.9198C10.249,13.07608,10.249,13.067,10.2489,13.058V4.163h0.821V2.6A0.944,0.944,0,0,0,10.137,1.645C10.12939,1.6449,10.1217,1.6449,10.114,1.645ZM3.695,0.863H7.367V1.645H3.695V0.863ZM9.372,13.058a0.068,0.068,0,0,1-.079.079H1.769a0.068,0.068,0,0,1-.079-0.05487,0.06685,0.06685,0,0,1,0-.02414V4.163h7.682v8.895H9.372Zm0.821-9.763H0.869V2.6A0.074,0.074,0,0,1,.948,2.513h9.166a0.073,0.073,0,0,1,.079.087V3.3h0V3.295ZM7.122,5.181H7.998v7.182H7.122V5.181Zm-2.021,0H5.977v7.182H5.101V5.181Zm-2.021,0H3.956v7.182H3.08V5.181Z" transform="translate(0.0081 0.00519)"/></svg>