<svg xmlns="http://www.w3.org/2000/svg" width="12" height="12" viewBox="0 0 12 12"><title>del_circle_12-12</title><path d="M6,0a6,6,0,1,0,6,6A6.00615,6.00615,0,0,0,6,0ZM6,10.58824A4.70744,4.70744,0,0,1,1.32353,5.91177,4.70744,4.70744,0,0,1,6,1.2353a4.70744,4.70744,0,0,1,4.67647,4.67647A4.70744,4.70744,0,0,1,6,10.58824Z" fill="#474747"/><path d="M7.76471,5.29412H4.23529A0.696,0.696,0,0,0,3.52941,6a0.64939,0.64939,0,0,0,.70588.70588H7.76471A0.70588,0.70588,0,1,0,7.76471,5.29412Z" fill="#474747"/></svg>