<svg xmlns="http://www.w3.org/2000/svg" width="20" height="20" viewBox="0 0 20 20"><title>del_circle_20-20</title><path d="M10,0A10,10,0,1,0,20,10,10,10,0,0,0,10,0Zm0,17.64707A7.84571,7.84571,0,0,1,2.20589,9.85294,7.84571,7.84571,0,0,1,10,2.05883a7.84571,7.84571,0,0,1,7.79411,7.79411A7.84571,7.84571,0,0,1,10,17.64707Z" fill="#474747"/><path d="M12.94119,8.82353H7.05881A1.16,1.16,0,0,0,5.88234,9.96682h0q-0.00024.01659,0,.03317a1.08231,1.08231,0,0,0,1.17647,1.17647h5.88237A1.17647,1.17647,0,0,0,12.94119,8.82353Z" fill="#474747"/></svg>