<svg xmlns="http://www.w3.org/2000/svg" width="14" height="14" viewBox="0 0 14 14"><title>del_circle_14-14</title><path d="M7,0a7,7,0,1,0,7,7A7,7,0,0,0,7,0ZM7,12.35295A5.492,5.492,0,0,1,1.54412,6.89706,5.492,5.492,0,0,1,7,1.44118a5.492,5.492,0,0,1,5.45588,5.45588A5.492,5.492,0,0,1,7,12.35295Z" fill="#474747"/><path d="M9.05883,6.17647H4.94117a0.812,0.812,0,0,0-.82353.80031q-0.00017.01161,0,.02322a0.75762,0.75762,0,0,0,.82353.82353H9.05883A0.82353,0.82353,0,1,0,9.05883,6.17647Z" fill="#474747"/></svg>