<svg xmlns="http://www.w3.org/2000/svg" width="19.986" height="19.986" viewBox="0 0 19.986 19.986"><title>dollar_hover</title><path d="M10.52,9.11c-0.66-.32-1.31-0.48-1.31-1a0.575,0.575,0,0,1,.71-0.611,1.324,1.324,0,0,1,.83.311,1.024,1.024,0,0,0,.67.265,0.89,0.89,0,0,0,.84-0.9,1.00017,1.00017,0,0,0-.48-0.829,3.1119,3.1119,0,0,0-.86-0.461V5.466a0.737,0.737,0,0,0-.738-0.736H9.6499a0.73707,0.73707,0,0,0-.74.734V5.927a2.461,2.461,0,0,0-1.5,2.221c0,1.44,1.28,2.051,2.35,2.55,0.86,0.394,1.14.64,1.14,1a0.96411,0.96411,0,0,1-1.1.915,1.54517,1.54517,0,0,1-1.02-.31,1.05478,1.05478,0,0,0-.68-0.291,0.891,0.891,0,0,0-.84.9,1.00884,1.00884,0,0,0,.45.807,3.83185,3.83185,0,0,0,1.2.566v0.32a0.737,0.737,0,0,0,.738.736h0.532a0.73707,0.73707,0,0,0,.74-0.734V14.224a2.588,2.588,0,0,0,1.81006-2.579C12.73,10.326,11.81006,9.741,10.52,9.11ZM10,0a9.993,9.993,0,1,0,.014,0H10Zm0.01,18.389c-3.93994,0-8.39-4.443-8.39-8.386s4.45-8.386,8.39-8.386,8.39,4.444,8.39,8.386S13.95,18.389,10.01,18.389Z" transform="translate(-0.014)" fill="#fff"/></svg>