<svg xmlns="http://www.w3.org/2000/svg" width="34" height="34" viewBox="0 0 34 34"><title>download</title><circle cx="17" cy="17" r="16" fill="#fff" stroke="#43c9e0" stroke-linejoin="round" stroke-width="2"/><path d="M22.40181,22.47076H11.59819A0.60007,0.60007,0,0,0,11,23.069v0.7983a0.6,0.6,0,0,0,.59819.59808H22.39755a0.6001,0.6001,0,0,0,.59822-0.59808V23.069a0.58982,0.58982,0,0,0-.594-0.59822" fill="#50bfd8"/><rect x="11" y="9.5" width="12" height="14.98137" fill="none"/><path d="M16.58175,21.39992a0.59677,0.59677,0,0,0,.4215.17672,0.58969,0.58969,0,0,0,.42147-0.17672l4.09148-4.09148a0.60244,0.60244,0,0,0,0-.84723L20.95,15.89489a0.60285,0.60285,0,0,0-.84737,0l-2.10322,2.1054v-7.9021A0.60005,0.60005,0,0,0,17.40125,9.5H16.603a0.59739,0.59739,0,0,0-.59822.59819v7.9042L13.89944,15.897a0.60272,0.60272,0,0,0-.84726,0l-0.56629.56631a0.60267,0.60267,0,0,0,0,.84726Z" fill="#50bfd8"/><rect x="11" y="9.5" width="12" height="14.98137" fill="none"/></svg>