<svg xmlns="http://www.w3.org/2000/svg" width="15.9551" height="14" viewBox="0 0 15.9551 14"><title>home_old</title><path d="M3.47846,13.3a0.78874,0.78874,0,0,1-.8-0.8v-5a0.3193,0.3193,0,0,0-.3-0.3h-0.9a0.752,0.752,0,0,1-.7-0.5,0.83042,0.83042,0,0,1,.2-0.8l5.9-4.8a1.50387,1.50387,0,0,1,1.1-.4,1.50387,1.50387,0,0,1,1.1.4l5.9,4.8a0.77772,0.77772,0,0,1,.2.8,0.752,0.752,0,0,1-.7.5h-1a0.3193,0.3193,0,0,0-.3.3v5a0.78874,0.78874,0,0,1-.8.8h-8.9Z" fill="#fff"/><path d="M7.97846,1.5a0.73474,0.73474,0,0,1,.6.2l5.9,4.8h-1a0.94477,0.94477,0,0,0-1,1v5h-9v-5a0.94477,0.94477,0,0,0-1-1h-1l5.9-4.8a0.73473,0.73473,0,0,1,.6-0.2m0-1.5a3.02179,3.02179,0,0,0-1.6.5l-5.9,4.8a1.73138,1.73138,0,0,0-.4,1.7,1.504,1.504,0,0,0,1.4,1h0.5v4.5a1.538,1.538,0,0,0,1.5,1.5h9a1.538,1.538,0,0,0,1.5-1.5V8h0.5a1.504,1.504,0,0,0,1.4-1,1.57424,1.57424,0,0,0-.5-1.7l-5.8-4.8a3.02179,3.02179,0,0,0-1.6-.5h0Z" fill="#636363"/></svg>