<svg xmlns="http://www.w3.org/2000/svg" width="15.955" height="13.91429" viewBox="0 0 15.955 13.91429"><title>home_old_hover</title><path d="M3.55474,13.21857a0.78391,0.78391,0,0,1-.7951-0.7951V7.45408a0.31735,0.31735,0,0,0-.29816-0.29816H1.567A0.74739,0.74739,0,0,1,.87127,6.659,0.773,0.773,0,0,1,1.07,5.86388L6.93393,1.09327A1.49466,1.49466,0,0,1,8.02719.69572a1.49466,1.49466,0,0,1,1.09327.39755l5.86388,4.77061a0.773,0.773,0,0,1,.19878.7951,0.74739,0.74739,0,0,1-.69571.49694H13.49352a0.31735,0.31735,0,0,0-.29816.29816v4.96939a0.78391,0.78391,0,0,1-.7951.7951H3.55474Z" fill="#fff"/><path d="M8.02719,1.49082a1.41262,1.41262,0,0,1,.59633.19878L14.4874,6.46021H13.49352a0.939,0.939,0,0,0-.99388.99388v4.96939H3.55474V7.45408a0.939,0.939,0,0,0-.99388-0.99388H1.567L7.43087,1.68959a0.73023,0.73023,0,0,1,.59633-0.19878M8.02719,0A2.4369,2.4369,0,0,0,6.437.59633L0.57311,5.26755A1.5646,1.5646,0,0,0,.07617,6.95714,1.49479,1.49479,0,0,0,1.4676,7.951H1.96454v4.47245a1.52854,1.52854,0,0,0,1.49082,1.49082h8.9449a1.52854,1.52854,0,0,0,1.49082-1.49082V7.951H14.4874a1.49478,1.49478,0,0,0,1.39143-.99388,1.5646,1.5646,0,0,0-.49694-1.68959L9.6174,0.49694A3.00329,3.00329,0,0,0,8.02719,0h0Z" fill="#2ec1d9"/></svg>