<svg xmlns="http://www.w3.org/2000/svg" width="15.71617" height="14.01743" viewBox="0 0 15.71617 14.01743"><title>home</title><path d="M0.512,8.354h1.28v5.122a0.55,0.55,0,0,0,.549.549h10.7a0.55,0.55,0,0,0,.549-0.549V8.354h1.554a0.547,0.547,0,0,0,.384-0.933L8.376,0.168A0.546,0.546,0,0,0,7.612.159L0.139,7.412a0.549,0.549,0,0,0-.128.6A0.535,0.535,0,0,0,.512,8.354Zm7.46-7.025,5.851,5.927H13.038a0.55,0.55,0,0,0-.549.549v5.122h-9.6V7.806a0.55,0.55,0,0,0-.547-0.549H1.867Z" transform="translate(0.02873 -0.00756)" fill="#43c9e0"/></svg>