<svg xmlns="http://www.w3.org/2000/svg" width="14.00015" height="14.11561" viewBox="0 0 14.00015 14.11561"><title>horn</title><rect x="0.00015" y="0.11561" width="14" height="14" fill="none"/><path d="M3.9976,3.57745L2.06111,3.581a1.56178,1.56178,0,0,0-1.529,1.5474V5.16986A1.219,1.219,0,0,0,.53472,7.18574,1.56328,1.56328,0,0,0,1.97267,8.865L2.00631,8.86726S2.58965,8.89108,2.541,9.82182l0.00354,3.67711a0.488,0.488,0,0,0,.50025.59285A1.24767,1.24767,0,0,0,3.9154,12.0759c0.64874-.67225-0.27664-1.06131.0928-2.15792a2.79092,2.79092,0,0,0,.4976-1.08513l0.02386-4.697a0.47457,0.47457,0,0,0-.53206-0.5584" transform="translate(0.00015 0.00001)" fill="#3b3b3b"/><path d="M12.87045,4.525L12.86427,0.2347c0-.562-0.47639.06176-0.47639,0.06176-2.2476,3.498-6.89836,3.22541-6.89836,3.22541a0.39686,0.39686,0,0,0-.4596.46934L5.037,8.04326a0.47034,0.47034,0,0,0,.47442.46623l0.01611-.00042c5.19962-.01059,6.97437,3.2704,6.97437,3.2704s0.4101,0.5064.3827-.0247L12.874,7.47158A1.66215,1.66215,0,0,0,12.87045,4.525M7.75391,3.95327a7.11087,7.11087,0,0,0,4.53674-2.72254S11.71793,3.91181,7.75391,3.95327m5.68662,2.52228a2.2111,2.2111,0,0,0-.43131-1.58888,1.29229,1.29229,0,0,1,.43131,1.58888" transform="translate(0.00015 0.00001)" fill="#3b3b3b"/></svg>