<svg xmlns="http://www.w3.org/2000/svg" width="19.7" height="19.7" viewBox="0 0 19.7 19.7"><title>invoice</title><circle cx="9.85" cy="9.85" r="9" fill="none" stroke="#2dc3dc" stroke-width="1.7"/><path d="M6.97429,13.50776H8.564v1.38436H6.97429V13.50776Zm2.20526,0h1.64083v1.38436H9.17955V13.50776Zm2.25641,0h1.58981v1.38436H11.436V13.50776h0ZM6.97429,11.25141H8.564v1.4357H6.97429v-1.4357Zm2.20526,0h1.64083v1.4357H9.17955v-1.4357Zm2.25641,0h1.58981v1.4357H11.436v-1.4357h0ZM6.97429,8.37955h6.05147v1.94853H6.97429V8.37955ZM8.154,4.82808l0.88462-.75615h2.8075V7.45622H8.154V4.82808ZM8.71083,3.2L7.28205,4.43269V6.17423H6v9.74359h8V6.17423H12.718V3.2H8.71083Z" transform="translate(0 0)" fill="#2dc3dc"/></svg>