<svg xmlns="http://www.w3.org/2000/svg" width="10.71748" height="10.7236" viewBox="0 0 10.71748 10.7236"><title>offer_blue</title><path d="M6.87352,10.46238a0.9,0.9,0,0,1-1.268,0l-4.944-4.618a2.04294,2.04294,0,0,1-.629-1.124c-0.064-1.019-.019-2.97.012-4a0.735,0.735,0,0,1,.708-0.7c1.327-.031,4.138-0.063,4.4.2l5.444,4.906a1.386,1.386,0,0,1-.32,1.58Zm-4.331-8.95A0.757,0.757,0,1,0,2.539,2.58293h0l0.00354-.00355a0.753,0.753,0,0,0,.0021-1.0649Z" transform="translate(-0.00002 0)" fill="#2dc3dc"/></svg>