<svg xmlns="http://www.w3.org/2000/svg" width="19.7" height="19.7" viewBox="0 0 19.7 19.7"><title>offer_circle_20-20_hover</title><circle cx="9.85" cy="9.85" r="9" fill="none" stroke="#fff" stroke-width="1.7"/><path d="M10.63387,13.33714a0.673,0.673,0,0,1-.947,0l-3.693-3.447a1.524,1.524,0,0,1-.47-0.839c-0.047-.761-0.014-2.217.009-2.989a0.548,0.548,0,0,1,.529-0.524,13.841,13.841,0,0,1,3.283.147l4.063,3.662a1.033,1.033,0,0,1-.239,1.179Zm-3.233-6.681a0.568,0.568,0,0,0-.8,0,0.562,0.562,0,0,0-.00523.79477L6.60087,7.45614a0.568,0.568,0,0,0,.8,0A0.562,0.562,0,0,0,7.4061,6.66137Z" transform="translate(0 0)" fill="#fff"/></svg>