<svg xmlns="http://www.w3.org/2000/svg" width="14.01928" height="13.99889" viewBox="0 0 14.01928 13.99889"><title>offer_tab</title><path d="M8.957,13.659a1.176,1.176,0,0,1-1.655,0L0.853,7.634A2.659,2.659,0,0,1,.032,6.168c-0.083-1.33-.025-3.875.016-5.225A0.959,0.959,0,0,1,.972.027c1.731-.04,5.4-0.082,5.739.257l7.1,6.4c0.456,0.455.043,1.605-.417,2.061ZM3.306,1.983a0.99205,0.99205,0,0,0-1.4,0,0.981,0.981,0,0,0-.0047,1.38733L1.906,3.375a0.99205,0.99205,0,0,0,1.4,0,0.981,0.981,0,0,0,.0047-1.38733Z" transform="translate(0.01022 -0.0005)" fill="#3b3b3b"/></svg>