<svg xmlns="http://www.w3.org/2000/svg" width="14" height="14.00007" viewBox="0 0 14 14.00007"><title>ok</title><path d="M7,0a7,7,0,1,0,7,7A7.008,7.008,0,0,0,7,0ZM7,12.90524A5.90521,5.90521,0,1,1,12.90517,7,5.91187,5.91187,0,0,1,7,12.90524Z" fill="#00c853"/><path d="M10.911,4.9688l-0.89053-.89053a0.26987,0.26987,0,0,0-.38171,0L5.92911,7.78793,4.35132,6.21024a0.26987,0.26987,0,0,0-.38171,0l-0.89053.89051a0.26987,0.26987,0,0,0,0,.38171l2.65919,2.6591a0.26968,0.26968,0,0,0,.38169,0L10.911,5.35049a0.26991,0.26991,0,0,0,0-.38169" fill="#00c853"/></svg>