<svg xmlns="http://www.w3.org/2000/svg" width="10" height="10" viewBox="0 0 10 10"><title>ok_10-10</title><path d="M5,0a5,5,0,1,0,5,5A5,5,0,0,0,5,0ZM5,9.218A4.218,4.218,0,1,1,9.218,5h0A4.22276,4.22276,0,0,1,5,9.218Z" fill="#00c853"/><path d="M7.79357,3.54914L7.15748,2.913a0.19276,0.19276,0,0,0-.27261,0l0,0L4.23508,5.56281l-1.127-1.12692a0.19276,0.19276,0,0,0-.27261,0l0,0L2.19934,5.072a0.19276,0.19276,0,0,0,0,.27261l0,0L4.09876,7.244a0.19263,0.19263,0,0,0,.27242.00022L4.3714,7.244,7.79357,3.82178a0.19279,0.19279,0,0,0,0-.27264" fill="#00c853"/></svg>