<svg xmlns="http://www.w3.org/2000/svg" width="34" height="34" viewBox="0 0 34 34"><title>ok_circle_34-34_inactive</title><circle cx="17" cy="17" r="16" fill="#fff" stroke="#bdbdbd" stroke-linejoin="round" stroke-width="2"/><path d="M22.17669,12.0698l-0.311-.267a1.254,1.254,0,0,0-1.748.111l-5.2,5.764-1.571-1.352a1.255,1.255,0,0,0-1.748.109l-0.275.3a1.252,1.252,0,0,0,.08824,1.7684l0.00176,0.00159,2.88,2.634a1.254,1.254,0,0,0,1.77244-.05917q0.01872-.02.03656-0.04083l6.213-7.21A1.252,1.252,0,0,0,22.17669,12.0698Z" fill="#bdbdbd"/></svg>