<svg xmlns="http://www.w3.org/2000/svg" width="12.81502" height="10.75256" viewBox="0 0 12.81502 10.75256"><title>partners</title><path d="M7.735,1.836A2.317,2.317,0,0,1,8.819,3.558,1.868,1.868,0,1,0,7.735,1.836ZM6.5,5.666a1.87,1.87,0,1,0-1.88-1.87A1.87,1.87,0,0,0,6.5,5.666h0ZM7.3,5.793H5.705A2.4,2.4,0,0,0,3.299,8.187v1.972l0.135,0.042a11,11,0,0,0,3.271.525,6.741,6.741,0,0,0,2.857-.534l0.126-.063H9.701V8.188A2.4,2.4,0,0,0,7.3,5.793Zm3.109-1.931H8.827a2.3,2.3,0,0,1-.715,1.605A2.847,2.847,0,0,1,10.154,8.19v0.6a6.5,6.5,0,0,0,2.522-.527L12.802,8.2h0.013V6.256A2.4,2.4,0,0,0,10.41,3.862H10.409Zm-7.2-.127a1.874,1.874,0,0,0,1-.289A2.312,2.312,0,0,1,5.083,1.97V1.865a1.879,1.879,0,1,0-1.888,1.87q0.006,0,.012,0H3.209ZM4.896,5.468a2.3,2.3,0,0,1-.714-1.6c-0.059,0-.117-0.009-0.177-0.009H2.411A2.4,2.4,0,0,0,0,6.248L0,6.256V8.197l0.005,0.03L0.139,8.269a11.3231,11.3231,0,0,0,2.71.507V8.191A2.848,2.848,0,0,1,4.894,5.468H4.896Z" transform="translate(0 0.023)" fill="#ffffff"/></svg>