<svg xmlns="http://www.w3.org/2000/svg" width="12.815" height="10.75254" viewBox="0 0 12.815 10.75254"><title>partners_blue</title><path d="M7.735,1.859A2.317,2.317,0,0,1,8.819,3.581,1.868,1.868,0,1,0,7.735,1.859ZM6.5,5.689a1.87,1.87,0,1,0-.01,0l0.01,0h0ZM7.3,5.816H5.705A2.4,2.4,0,0,0,3.299,8.21v1.972l0.135,0.042a11,11,0,0,0,3.271.525,6.741,6.741,0,0,0,2.857-.534l0.126-.063H9.701V8.211A2.4,2.4,0,0,0,7.3,5.816Zm3.109-1.931H8.827A2.3,2.3,0,0,1,8.112,5.49a2.847,2.847,0,0,1,2.042,2.723v0.6a6.5,6.5,0,0,0,2.522-.527l0.126-.063h0.013V6.279A2.4,2.4,0,0,0,10.41,3.885H10.409Zm-7.2-.127a1.874,1.874,0,0,0,1-.289,2.312,2.312,0,0,1,.874-1.476V1.888a1.879,1.879,0,1,0-1.888,1.87H3.209ZM4.896,5.491a2.3,2.3,0,0,1-.714-1.6c-0.059,0-.117-0.009-0.177-0.009H2.411A2.4,2.4,0,0,0,0,6.27095V8.22L0.005,8.25,0.139,8.292a11.32312,11.32312,0,0,0,2.71.507V8.214A2.848,2.848,0,0,1,4.894,5.491H4.896Z" transform="translate(0 -0.00002)" fill="#2dc3dc"/></svg>