<svg xmlns="http://www.w3.org/2000/svg" width="20" height="20" viewBox="0 0 20 20"><title>prev_circle_20-20</title><path d="M10,20A10,10,0,1,1,20,10,10.01623,10.01623,0,0,1,10,20ZM10,1.63265A8.46939,8.46939,0,1,0,18.46939,10.102,8.51406,8.51406,0,0,0,10,1.63265Z" fill="#3b3b3b"/><path d="M14.79592,8.16327l0.61224-.81633-0.81633-.71428L13.87755,7.449a8.34438,8.34438,0,0,0-1.93877-.91837l0.102-1.12245-1.02041-.20409-0.102,1.02041c-0.30613,0-.61225-0.102-0.91837-0.102a2.24681,2.24681,0,0,0-.81633.102l-0.102-1.02041-1.12245.102,0.102,1.12246a8.99832,8.99832,0,0,0-2.04082.91836L5.40816,6.53061,4.59184,7.2449,5.20408,7.95919A6.68283,6.68283,0,0,0,3.67347,9.79592l-0.40816.61224,0.40816,0.61225A7.32583,7.32583,0,0,0,9.898,14.69388a7.55678,7.55678,0,0,0,6.22449-3.67347l0.40816-.61225-0.40816-.61224A6.66225,6.66225,0,0,0,14.79592,8.16327ZM10,13.67347a6.35369,6.35369,0,0,1-5.30612-3.16326A6.46321,6.46321,0,0,1,10,7.2449a6.35369,6.35369,0,0,1,5.30612,3.16326A6.24009,6.24009,0,0,1,10,13.67347Z" fill="#3b3b3b"/><path d="M12.2449,9.79592c0,0.20409.102,0.40816,0.102,0.61224a2.2449,2.2449,0,1,1-2.2449-2.2449H10.5102a0.86762,0.86762,0,0,1,.5102-0.30613,2.24681,2.24681,0,0,0-.81633-0.102,2.7551,2.7551,0,1,0,2.7551,2.75511,4.33973,4.33973,0,0,0-.20408-1.12246A1.10441,1.10441,0,0,0,12.2449,9.79592Z" fill="#3b3b3b"/><path d="M10.102,8.9796V8.67347H10a1.83673,1.83673,0,1,0,1.83673,1.83674V10.20408a0.6135,0.6135,0,0,1-.40816.102A1.348,1.348,0,0,1,10.102,8.9796Z" fill="#3b3b3b"/></svg>