<svg xmlns="http://www.w3.org/2000/svg" width="14" height="14" viewBox="0 0 14 14"><title>question</title><rect width="14" height="14" fill="none"/><path d="M7,0a7,7,0,1,0,7,7A7,7,0,0,0,7,0M7,12.72727A5.72727,5.72727,0,1,1,12.72727,7h0A5.73379,5.73379,0,0,1,7,12.72727" fill="#757575"/><path d="M7,9.75758a0.84848,0.84848,0,1,0,.84848.84848V10.60564A0.8492,0.8492,0,0,0,7,9.75758" fill="#757575"/><path d="M7,2.54545a2.337,2.337,0,0,0-2.33439,2.3344,0.63636,0.63636,0,1,0,1.27273,0A1.06175,1.06175,0,1,1,7.00023,5.94146H7a0.63639,0.63639,0,0,0-.63636.63636V7.84848a0.63636,0.63636,0,0,0,1.27273,0V7.12531A2.33407,2.33407,0,0,0,7,2.54545" fill="#757575"/></svg>