<svg xmlns="http://www.w3.org/2000/svg" width="12.01202" height="12.01199" viewBox="0 0 12.01202 12.01199"><title>remove_button_hover</title><path d="M6,0a6.006,6.006,0,1,0,6.006,6.006V6a6,6,0,0,0-6-6H6ZM8.582,7.631l-0.956.955A21.857,21.857,0,0,0,5.999,6.963a22.39771,22.39771,0,0,0-1.624,1.623L3.418,7.631A18.69243,18.69243,0,0,0,5.042,6,18.46119,18.46119,0,0,0,3.417,4.374l0.957-.957S5.9,5.041,5.998,5.041,7.625,3.417,7.625,3.417L8.581,4.374A22.0606,22.0606,0,0,0,6.955,6,22.66366,22.66366,0,0,0,8.581,7.626Z" transform="translate(0.00604)" fill="#2dc3dc"/></svg>