<svg xmlns="http://www.w3.org/2000/svg" width="20" height="20" viewBox="0 0 20 20"><title>reset</title><circle cx="10" cy="10" r="9" fill="none" stroke="#43c9e0" stroke-width="2"/><path d="M5.05765,9.24775a4.79581,4.79581,0,0,1,9.55968.495h1.29022a0.0926,0.0926,0,0,1,.065.15l-1.95093,2.65646a0.0818,0.0818,0,0,1-.13224,0L11.93844,9.8928a0.09327,0.09327,0,0,1,.065-0.15h1.28793A3.47348,3.47348,0,1,0,9.26407,13.228a0.66055,0.66055,0,0,1-.19938,1.30587,4.80269,4.80269,0,0,1-4.007-5.28612" fill="#43c9e0"/><rect x="5" y="5" width="11" height="9.54184" fill="none"/></svg>