<svg xmlns="http://www.w3.org/2000/svg" width="10.69876" height="10.71592" viewBox="0 0 10.69876 10.71592"><title>settings</title><path d="M10.641,4.752a0.348,0.348,0,0,0-.344-0.264,1.184,1.184,0,0,1-.809-2.06,0.3,0.3,0,0,0,.033-0.4,5.3203,5.3203,0,0,0-.848-0.857,0.3,0.3,0,0,0-.407.033,1.234,1.234,0,0,1-1.336.3A1.192,1.192,0,0,1,6.207.34a0.3,0.3,0,0,0-.262-0.313,5.353,5.353,0,0,0-1.205,0,0.3,0.3,0,0,0-.265.307,1.192,1.192,0,0,1-.733,1.143,1.235,1.235,0,0,1-1.325-.3,0.3,0.3,0,0,0-.4-0.034,5.29886,5.29886,0,0,0-.866.857,0.3,0.3,0,0,0,.032.407,1.189,1.189,0,0,1,.3,1.337,1.238,1.238,0,0,1-1.165.724,0.291,0.291,0,0,0-.309.263,5.34246,5.34246,0,0,0,0,1.219,0.353,0.353,0,0,0,.351.264,1.174,1.174,0,0,1,1.1.734,1.193,1.193,0,0,1-.3,1.325,0.3,0.3,0,0,0-.033.4,5.31636,5.31636,0,0,0,.847.858,0.3,0.3,0,0,0,.408-0.032,1.23,1.23,0,0,1,1.334-.3,1.19008,1.19008,0,0,1,.725,1.163,0.3,0.3,0,0,0,.262.313,5.327,5.327,0,0,0,1.2,0,0.3,0.3,0,0,0,.265-0.307,1.192,1.192,0,0,1,.732-1.143,1.234,1.234,0,0,1,1.326.3,0.3,0.3,0,0,0,.4.034,5.325,5.325,0,0,0,.866-0.857,0.3,0.3,0,0,0-.032-0.407,1.184,1.184,0,0,1,.795-2.064h0.067a0.3,0.3,0,0,0,.313-0.263A5.34075,5.34075,0,0,0,10.641,4.752ZM5.33,7.146a1.788,1.788,0,1,1,1.786-1.79V5.358A1.789,1.789,0,0,1,5.33,7.146Z" transform="translate(0.02603 0.00701)" fill="#888988"/></svg>