<svg xmlns="http://www.w3.org/2000/svg" width="7.04083" height="13" viewBox="0 0 7.04083 13"><title>sort</title><path d="M6.99176,8.19637a0.351,0.351,0,0,1,0,.358l-3.156,4.267a0.368,0.368,0,0,1-.631,0l-3.156-4.267a0.35294,0.35294,0,0,1,0-.358,0.366,0.366,0,0,1,.315-0.179h6.312A0.36693,0.36693,0,0,1,6.99176,8.19637Z" fill="#3b3b3b"/><path d="M0.04907,4.80363a0.351,0.351,0,0,1,0-.358l3.156-4.267a0.368,0.368,0,0,1,.631,0l3.156,4.267a0.35294,0.35294,0,0,1,0,.358,0.366,0.366,0,0,1-.315.179h-6.312A0.36693,0.36693,0,0,1,.04907,4.80363Z" fill="#3b3b3b"/></svg>