<svg xmlns="http://www.w3.org/2000/svg" width="9.555" height="10.731" viewBox="0 0 9.555 10.731"><title>stat</title><path d="M2.341,5.373H0.28a0.288,0.288,0,0,0-.288.288h0v4.783a0.288,0.288,0,0,0,.288.288H2.341a0.288,0.288,0,0,0,.284-0.288V5.661A0.288,0.288,0,0,0,2.341,5.373ZM5.8,0.001H3.739a0.288,0.288,0,0,0-.288.288h0V10.444a0.288,0.288,0,0,0,.288.288H5.8a0.288,0.288,0,0,0,.288-0.288h0V0.289A0.288,0.288,0,0,0,5.8.001ZM9.259,3.322H7.198a0.288,0.288,0,0,0-.288.288h0v6.834a0.288,0.288,0,0,0,.288.288H9.259a0.288,0.288,0,0,0,.288-0.288h0V3.61A0.288,0.288,0,0,0,9.259,3.322Z" transform="translate(0.008 -0.001)" fill="#ffffff"/></svg>