<svg xmlns="http://www.w3.org/2000/svg" width="19.6" height="19.6" viewBox="0 0 19.6 19.6"><title>stat_circle</title><path d="M10,0.3a9.8,9.8,0,1,0,9.8,9.8A9.81591,9.81591,0,0,0,10,.3Zm0,18A8.34377,8.34377,0,0,1,1.7,10,8.2581,8.2581,0,0,1,10,1.8a8.34377,8.34377,0,0,1,8.3,8.3A8.2581,8.2581,0,0,1,10,18.3Z" transform="translate(-0.2 -0.3)" fill="#41bdc8"/><path d="M7,10.1a0.94477,0.94477,0,0,0-1,1V14a0.94477,0.94477,0,0,0,1,1,0.94477,0.94477,0,0,0,1-1V11.1A0.94477,0.94477,0,0,0,7,10.1Z" transform="translate(-0.2 -0.3)" fill="#41bdc8"/><path d="M13,8a0.94477,0.94477,0,0,0-1,1v5a1,1,0,0,0,2,0V9A0.94477,0.94477,0,0,0,13,8Z" transform="translate(-0.2 -0.3)" fill="#41bdc8"/><path d="M10,5A0.94477,0.94477,0,0,0,9,6v8a0.94477,0.94477,0,0,0,1,1,0.94477,0.94477,0,0,0,1-1V6A0.94477,0.94477,0,0,0,10,5Z" transform="translate(-0.2 -0.3)" fill="#41bdc8"/></svg>