<svg xmlns="http://www.w3.org/2000/svg" width="9.555" height="10.731" viewBox="0 0 9.555 10.731"><title>stat_blue</title><path d="M2.349,5.372H0.288A0.288,0.288,0,0,0,0,5.66H0v4.783a0.288,0.288,0,0,0,.288.288H2.349a0.288,0.288,0,0,0,.284-0.288V5.66A0.288,0.288,0,0,0,2.349,5.372ZM5.808,0H3.747a0.288,0.288,0,0,0-.288.288h0V10.443a0.288,0.288,0,0,0,.288.288H5.808a0.288,0.288,0,0,0,.288-0.288h0V0.288A0.288,0.288,0,0,0,5.808,0h0ZM9.267,3.321H7.206a0.288,0.288,0,0,0-.288.288h0v6.834a0.288,0.288,0,0,0,.288.288H9.267a0.288,0.288,0,0,0,.288-0.288h0V3.609a0.288,0.288,0,0,0-.288-0.288h0Z" transform="translate(0 0)" fill="#2dc3dc"/></svg>