<svg xmlns="http://www.w3.org/2000/svg" width="19.6" height="19.6" viewBox="0 0 19.6 19.6"><title>stat_circle_hover</title><path d="M9.8,0a9.8,9.8,0,1,0,9.8,9.8h0A9.81591,9.81591,0,0,0,9.8,0Zm0,18A8.34377,8.34377,0,0,1,1.5,9.7,8.2581,8.2581,0,0,1,9.8,1.5a8.34377,8.34377,0,0,1,8.3,8.3A8.2581,8.2581,0,0,1,9.8,18Z" transform="translate(0)" fill="#fff"/><path d="M6.8,9.8a0.94477,0.94477,0,0,0-1,1v2.9a0.94477,0.94477,0,0,0,1,1,0.94477,0.94477,0,0,0,1-1V10.8A0.94477,0.94477,0,0,0,6.8,9.8Z" transform="translate(0)" fill="#fff"/><path d="M12.8,7.7a0.94477,0.94477,0,0,0-1,1v5a1,1,0,0,0,2,0v-5A0.94477,0.94477,0,0,0,12.8,7.7Z" transform="translate(0)" fill="#fff"/><path d="M9.8,4.7a0.94477,0.94477,0,0,0-1,1v8a0.94477,0.94477,0,0,0,1,1,0.94477,0.94477,0,0,0,1-1v-8A0.94477,0.94477,0,0,0,9.8,4.7Z" transform="translate(0)" fill="#fff"/></svg>