<svg xmlns="http://www.w3.org/2000/svg" width="14" height="13.87872" viewBox="0 0 14 13.87872"><title>user</title><rect width="14" height="13.87872" fill="none"/><path d="M6.98928,7.33672a3.433,3.433,0,0,0,3.13407-3.66834C10.12335,0.85894,8.72011,0,6.98928,0,5.25829,0,3.855.85894,3.855,3.66838A3.433,3.433,0,0,0,6.98928,7.33672" transform="translate(-0.00004)" fill="#3b3b3b"/><path d="M13.90994,12.7361l-1.58119-3.562a0.79207,0.79207,0,0,0-.35747-0.38049L9.5173,7.5162a0.15794,0.15794,0,0,0-.1683.01418,3.87138,3.87138,0,0,1-4.71962,0A0.15825,0.15825,0,0,0,4.46092,7.5162L2.00712,8.79364a0.79207,0.79207,0,0,0-.35747.38049l-1.58119,3.562a0.79048,0.79048,0,0,0,.72246,1.11128H13.18735a0.79048,0.79048,0,0,0,.72259-1.11128" transform="translate(-0.00004)" fill="#3b3b3b"/></svg>