<svg xmlns="http://www.w3.org/2000/svg" width="13.00029" height="16.00154" viewBox="0 0 13.00029 16.00154"><title>user_man</title><rect x="0.00029" y="0.0011" width="13" height="16" fill="none"/><path d="M6.50046,6.31463A3.2542,3.2542,0,0,0,9.8368,3.15735,3.254,3.254,0,0,0,6.50046,0a3.25423,3.25423,0,0,0-3.3364,3.15735,3.2544,3.2544,0,0,0,3.3364,3.15728" transform="translate(0.00029 0.0011)" fill="#3b3b3b"/><path d="M10.97732,7.84478L10.97177,7.843c-0.43421-.10047-1.76451-0.2765-1.76451-0.2765a0.29969,0.29969,0,0,0-.36469.17178L6.8401,12.93733a0.369,0.369,0,0,1-.67935,0L4.15857,7.73825a0.29531,0.29531,0,0,0-.27766-0.18438c-0.02861,0-1.39648.18148-1.85176,0.28882A2.70347,2.70347,0,0,0,0,10.5v4.326A1.20862,1.20862,0,0,0,1.24058,16H11.7595A1.20856,1.20856,0,0,0,13,14.826V10.4855a2.79674,2.79674,0,0,0-2.02268-2.64072" transform="translate(0.00029 0.0011)" fill="#3b3b3b"/><path d="M7.25567,7.46734a0.43847,0.43847,0,0,0-.31495-0.1239H6.05928a0.43736,0.43736,0,0,0-.31488.1239,0.37085,0.37085,0,0,0-.05394.45582L6.16161,8.59555,5.94116,10.35661l0.43421,1.09346a0.13525,0.13525,0,0,0,.24905,0l0.43442-1.09346L6.83846,8.59555,7.3096,7.92317a0.371,0.371,0,0,0-.05394-0.45582" transform="translate(0.00029 0.0011)" fill="#3b3b3b"/></svg>