<svg xmlns="http://www.w3.org/2000/svg" width="10" height="10" viewBox="0 0 10 10"><title>warning_error_10-10</title><path d="M5,6.30845a0.65172,0.65172,0,0,0,.65169-0.65169V2.68551a0.65169,0.65169,0,0,0-1.30336,0V5.65682A0.65168,0.65168,0,0,0,5,6.30845Z" fill="#ff7043"/><path d="M5.00019,6.66317a0.65148,0.65148,0,1,0,.46087.19081A0.65148,0.65148,0,0,0,5.00019,6.66317Z" fill="#ff7043"/><path d="M5,0a5,5,0,1,0,5,5A5,5,0,0,0,5,0ZM5,9.218A4.218,4.218,0,1,1,9.218,5h0A4.22276,4.22276,0,0,1,5,9.218Z" fill="#ff7043"/></svg>