<svg xmlns="http://www.w3.org/2000/svg" width="14" height="14.00007" viewBox="0 0 14 14.00007"><title>warning_error</title><path d="M7,8.83183a0.91241,0.91241,0,0,0,.91236-0.91236V3.75971a0.91236,0.91236,0,0,0-1.82471,0V7.91955A0.91235,0.91235,0,0,0,7,8.83183Z" fill="#ff7043"/><path d="M7.00026,9.32844a0.91207,0.91207,0,1,0,.64522.26714A0.91716,0.91716,0,0,0,7.00026,9.32844Z" fill="#ff7043"/><path d="M7,0a7,7,0,1,0,7,7A7.008,7.008,0,0,0,7,0ZM7,12.90524A5.90521,5.90521,0,1,1,12.90517,7,5.91187,5.91187,0,0,1,7,12.90524Z" fill="#ff7043"/></svg>