<svg xmlns="http://www.w3.org/2000/svg" width="14.00004" height="14.00004" viewBox="0 0 14.00004 14.00004"><title>world</title><rect x="0.00004" y="0.00004" width="14" height="14" fill="none"/><path d="M11.94974,2.05022a7,7,0,1,1-9.89952,0,7,7,0,0,1,9.89952,0M11.33092,11.331A6.08229,6.08229,0,0,0,13.00264,8.2267c-0.18412.27118-.36035,0.3717-0.46942-0.23522-0.11245-.98974-1.02152-0.35755-1.59311-0.70912-0.60159.40551-1.95384-.78825-1.72391,0.55825,0.35448,0.6072,1.91405-.81286,1.13671.47222-0.49584.89708-1.8135,2.88376-1.64209,3.91355,0.02164,1.50041-1.533.313-2.06865-.18477-0.36036-.997-0.12284-2.73945-1.065-3.22771C4.55442,8.76944,3.67669,8.67654,3.28031,7.53323A1.86069,1.86069,0,0,1,4.41063,5.30958c1.2832-.80616,1.74155.94407,2.94477,0.97665C7.72912,5.89529,8.7474,5.771,8.83192,5.33269c-0.78958-.13942,1.00163-0.664-0.07554-0.96226a0.7263,0.7263,0,0,0-.66131,1.07946C6.9434,5.7184,6.90638,3.78323,5.79944,4.39367c-0.02816.965-1.80779,0.31281-.61578,0.1171,0.4095-.17893-0.668-0.6975-0.08586-0.60323,0.286-.01548,1.24865-0.35287.98816-0.57972,0.536-.3327.98652,0.797,1.51121-0.02577C7.976,2.66959,7.43832,2.55277,6.96353,2.87347c-0.26769-.29972.47263-0.94715,1.12567-1.227a1.29919,1.29919,0,0,1,.5844-0.12964c0.32884,0.38.93713,0.4458,0.969-.04566a6.14075,6.14075,0,0,0-6.2973.61229c0.28239,0.12923.44259,0.29039,0.17062,0.49615A2.03185,2.03185,0,0,1,1.69455,3.93492a6.05787,6.05787,0,0,0-.7582,2.1947C1.56679,6.33815,1.71219,6.751,1.57667,6.88905a2.07315,2.07315,0,0,0-.62043,1.1119,6.12587,6.12587,0,0,0,10.37468,3.33011" transform="translate(0.00004 0.00004)" fill="#3b3b3b"/></svg>