<?xml version="1.0" encoding="utf-8"?>
<!-- Generator: Adobe Illustrator 18.1.1, SVG Export Plug-In . SVG Version: 6.00 Build 0)  -->
<svg version="1.1" xmlns="http://www.w3.org/2000/svg" xmlns:xlink="http://www.w3.org/1999/xlink" x="0px" y="0px" width="36px"
	 height="108px" viewBox="0 0 36 108" enable-background="new 0 0 36 108" xml:space="preserve">
<g id="Layer_1" display="none">
</g>
<g id="Layer_2">
	<path fill="#41bdc8" d="M35,0H1C0.4,0,0,0.4,0,1v34c0,0.6,0.4,1,1,1h34c0.6,0,1-0.4,1-1V1C36,0.4,35.6,0,35,0z M35,35H1V1h34V35z"
		/>
	<g>
		<path fill="#41bdc8" d="M14,19.3v1.3c0,1.6-0.8,2.5-2.3,2.5s-2.3-0.9-2.3-2.5v-5.1c0-1.6,0.8-2.5,2.3-2.5S14,14,14,15.5v1h-1.5
			v-1.1c0-0.7-0.3-1-0.8-1s-0.8,0.3-0.8,1v5.3c0,0.7,0.3,1,0.8,1s0.8-0.3,0.8-1v-1.4H14z"/>
		<path fill="#41bdc8" d="M18.1,13.1c1.5,0,2.3,0.9,2.3,2.5v0.3h-1.5v-0.4c0-0.7-0.3-1-0.8-1s-0.8,0.3-0.8,1c0,2,3,2.4,3,5.2
			c0,1.6-0.8,2.5-2.3,2.5c-1.5,0-2.3-0.9-2.3-2.5V20h1.5v0.7c0,0.7,0.3,1,0.8,1c0.5,0,0.8-0.3,0.8-1c0-2-3-2.4-3-5.2
			C15.8,14,16.6,13.1,18.1,13.1z"/>
		<path fill="#41bdc8" d="M24.6,21.2l1.2-8h1.4L25.7,23h-2.3l-1.5-9.8h1.6L24.6,21.2z"/>
	</g>
	<path fill="#41bdc8" d="M35,36H1c-0.6,0-1,0.4-1,1v34c0,0.6,0.4,1,1,1h34c0.6,0,1-0.4,1-1V37C36,36.4,35.6,36,35,36z M13.7,52.4
		h-1.5v-1.1c0-0.7-0.3-1-0.8-1s-0.8,0.3-0.8,1v5.3c0,0.7,0.3,1,0.8,1s0.8-0.3,0.8-1v-1.4h1.5v1.3c0,1.6-0.8,2.5-2.3,2.5
		s-2.3-0.9-2.3-2.5v-5.1c0-1.6,0.8-2.5,2.3-2.5s2.3,0.9,2.3,2.5V52.4z M17.8,59c-1.5,0-2.3-0.9-2.3-2.5v-0.6h1.5v0.7
		c0,0.7,0.3,1,0.8,1c0.5,0,0.8-0.3,0.8-1c0-2-3-2.4-3-5.2c0-1.6,0.8-2.5,2.3-2.5c1.5,0,2.3,0.9,2.3,2.5v0.3h-1.5v-0.4
		c0-0.7-0.3-1-0.8-1s-0.8,0.3-0.8,1c0,2,3,2.4,3,5.2C20.1,58.1,19.3,59,17.8,59z M25.4,58.9h-2.3l-1.5-9.8h1.6l1.2,8l1.2-8h1.4
		L25.4,58.9z"/>
	<path fill="#3B3B3B" d="M35,72H1c-0.6,0-1,0.4-1,1v34c0,0.6,0.4,1,1,1h34c0.6,0,1-0.4,1-1V73C36,72.4,35.6,72,35,72z M13.7,88.4
		h-1.5v-1.1c0-0.7-0.3-1-0.8-1s-0.8,0.3-0.8,1v5.3c0,0.7,0.3,1,0.8,1s0.8-0.3,0.8-1v-1.4h1.5v1.3c0,1.6-0.8,2.5-2.3,2.5
		s-2.3-0.9-2.3-2.5v-5.1c0-1.6,0.8-2.5,2.3-2.5s2.3,0.9,2.3,2.5V88.4z M17.8,95c-1.5,0-2.3-0.9-2.3-2.5v-0.6h1.5v0.7
		c0,0.7,0.3,1,0.8,1c0.5,0,0.8-0.3,0.8-1c0-2-3-2.4-3-5.2c0-1.6,0.8-2.5,2.3-2.5c1.5,0,2.3,0.9,2.3,2.5v0.3h-1.5v-0.4
		c0-0.7-0.3-1-0.8-1s-0.8,0.3-0.8,1c0,2,3,2.4,3,5.2C20.1,94.1,19.3,95,17.8,95z M25.4,94.9h-2.3l-1.5-9.8h1.6l1.2,8l1.2-8h1.4
		L25.4,94.9z"/>
</g>
</svg>
