<?xml version="1.0" encoding="utf-8"?>
<!-- Generator: Adobe Illustrator 18.1.1, SVG Export Plug-In . SVG Version: 6.00 Build 0)  -->
<svg version="1.1" id="Layer_2" xmlns="http://www.w3.org/2000/svg" xmlns:xlink="http://www.w3.org/1999/xlink" x="0px" y="0px"
	 width="20px" height="20px" viewBox="0 0 20 20" enable-background="new 0 0 20 20" xml:space="preserve">
<circle fill="none" stroke="#41bdc8" stroke-width="1.5" stroke-miterlimit="10" cx="10" cy="10" r="9"/>
<path fill="#41bdc8" d="M13,9V8c0-1.5-1-3-3-3C8,5,7,6.5,7,8v1H6v5h8V9H13z M10.5,11.4v1.1c0,0.3-0.2,0.5-0.5,0.5
	c-0.3,0-0.5-0.2-0.5-0.5v-1.1c-0.2-0.1-0.3-0.4-0.3-0.6c0-0.4,0.4-0.8,0.8-0.8s0.8,0.4,0.8,0.8C10.8,11,10.7,11.3,10.5,11.4z M12,9
	H8V8c0-1,0.5-2,2-2c1.5,0,2,1.1,2,2V9z"/>
</svg>
