<?xml version="1.0" encoding="utf-8"?>
<svg version="1.1" id="Layer_2" xmlns="http://www.w3.org/2000/svg" xmlns:xlink="http://www.w3.org/1999/xlink" x="0px" y="0px"
	 width="20px" height="20px" viewBox="0 0 20 20" enable-background="new 0 0 20 20" xml:space="preserve">
<g>
	<path fill="#41bdc8" d="M10,0.3c-5.4,0-9.8,4.4-9.8,9.8s4.4,9.8,9.8,9.8s9.8-4.4,9.8-9.8S15.4,0.3,10,0.3z M10,18.3
		c-4.5,0-8.3-3.7-8.3-8.3S5.5,1.8,10,1.8s8.3,3.7,8.3,8.3S14.5,18.3,10,18.3z"/>
	<path fill="#41bdc8" d="M12.9,5.9c-0.3-0.2-0.8-0.2-1,0.2l-5,7c-0.2,0.3-0.2,0.8,0.2,1c0.1,0.1,0.3,0.1,0.4,0.1
		c0.2,0,0.5-0.1,0.6-0.3l5-7C13.4,6.6,13.3,6.1,12.9,5.9z"/>
	<path fill="#41bdc8" d="M12.5,10.3c-1.2,0-2.3,1-2.3,2.3s1,2.3,2.3,2.3s2.3-1,2.3-2.3S13.7,10.3,12.5,10.3z M12.5,13.8
		c-0.7,0-1.3-0.6-1.3-1.3s0.6-1.3,1.3-1.3s1.3,0.6,1.3,1.3S13.2,13.8,12.5,13.8z"/>
	<path fill="#41bdc8" d="M9.8,7.5c0-1.2-1-2.3-2.3-2.3s-2.3,1-2.3,2.3s1,2.3,2.3,2.3S9.8,8.7,9.8,7.5z M6.3,7.5
		c0-0.7,0.6-1.3,1.3-1.3s1.3,0.6,1.3,1.3S8.2,8.8,7.5,8.8S6.3,8.2,6.3,7.5z"/>
</g>
</svg>
