<?xml version="1.0" encoding="utf-8"?>
<!-- Generator: Adobe Illustrator 18.1.1, SVG Export Plug-In . SVG Version: 6.00 Build 0)  -->
<svg version="1.1" id="Layer_2" xmlns="http://www.w3.org/2000/svg" xmlns:xlink="http://www.w3.org/1999/xlink" x="0px" y="0px"
	 width="20px" height="20px" viewBox="0 0 20 20" enable-background="new 0 0 20 20" xml:space="preserve">
<circle fill="none" stroke="#4B4B4B" stroke-width="1.5" stroke-miterlimit="10" cx="10" cy="10" r="9"/>
<g>
	<g>
		<path fill="#4B4B4B" d="M13.1,13.5v-1.1c0-1.5-1.3-2.4-2.1-2.9c0.8-0.5,2.1-1.4,2.1-2.9V5.5c0.3-0.1,0.4-0.4,0.4-0.7
			c0-0.5-0.4-0.8-0.9-0.8H7.9C7.4,4,7,4.4,7,4.8c0,0.3,0.2,0.5,0.4,0.7v1.1c0,1.5,1.3,2.4,2.1,2.9c-0.8,0.5-2.1,1.4-2.1,2.9v1.1
			C7.2,13.6,7,13.9,7,14.2C7,14.6,7.4,15,7.9,15h4.6c0.5,0,0.9-0.4,0.9-0.8C13.5,13.9,13.3,13.6,13.1,13.5z M8.5,6.6V5.7
			c0-0.1,0.1-0.3,0.3-0.3h3c0.1,0,0.3,0.1,0.3,0.3v0.9c0,1-1.1,1.7-1.6,2l-0.1,0c0,0-0.1,0-0.1,0s-0.1,0-0.1,0l-0.1,0
			C9.6,8.3,8.5,7.6,8.5,6.6z M12,13.3c0,0.1-0.1,0.3-0.3,0.3h-3c-0.1,0-0.3-0.1-0.3-0.3v-0.9c0-1,1.1-1.7,1.6-2l0.1,0
			c0.1,0,0.2,0,0.2,0l0.1,0c0.5,0.3,1.6,1,1.6,2V13.3z M10.2,11.3c-0.8,0.5-1.2,1-1.2,1.4V13h2.4v-0.3C11.5,12.3,11,11.7,10.2,11.3z
			 M11.1,7.2V7H9.4v0.2c0,0.3,0.3,0.7,0.9,1C10.8,7.9,11.1,7.5,11.1,7.2z"/>
	</g>
</g>
</svg>
