<svg xmlns="http://www.w3.org/2000/svg" width="36" height="108" viewBox="0 0 36 108"><path fill="#41bdc8" d="M35 0H1C.4 0 0 .4 0 1v34c0 .6.4 1 1 1h34c.6 0 1-.4 1-1V1c0-.6-.4-1-1-1zm0 35H1V1h34v34z"/><path d="M14 19.3v1.3c0 1.6-.8 2.5-2.3 2.5s-2.3-.9-2.3-2.5v-5.1c0-1.6.8-2.5 2.3-2.5s2.3 1 2.3 2.5v1h-1.5v-1.1c0-.7-.3-1-.8-1s-.8.3-.8 1v5.3c0 .7.3 1 .8 1s.8-.3.8-1v-1.4H14zm4.1-6.2c1.5 0 2.3.9 2.3 2.5v.3h-1.5v-.4c0-.7-.3-1-.8-1s-.8.3-.8 1c0 2 3 2.4 3 5.2 0 1.6-.8 2.5-2.3 2.5-1.5 0-2.3-.9-2.3-2.5V20h1.5v.7c0 .7.3 1 .8 1s.8-.3.8-1c0-2-3-2.4-3-5.2 0-1.5.8-2.4 2.3-2.4zm6.5 8.1l1.2-8h1.4L25.7 23h-2.3l-1.5-9.8h1.6l1.1 8zM35 36H1c-.6 0-1 .4-1 1v34c0 .6.4 1 1 1h34c.6 0 1-.4 1-1V37c0-.6-.4-1-1-1zM13.7 52.4h-1.5v-1.1c0-.7-.3-1-.8-1s-.8.3-.8 1v5.3c0 .7.3 1 .8 1s.8-.3.8-1v-1.4h1.5v1.3c0 1.6-.8 2.5-2.3 2.5s-2.3-.9-2.3-2.5v-5.1c0-1.6.8-2.5 2.3-2.5s2.3.9 2.3 2.5v1zm4.1 6.6c-1.5 0-2.3-.9-2.3-2.5v-.6H17v.7c0 .7.3 1 .8 1s.8-.3.8-1c0-2-3-2.4-3-5.2 0-1.6.8-2.5 2.3-2.5 1.5 0 2.3.9 2.3 2.5v.3h-1.5v-.4c0-.7-.3-1-.8-1s-.8.3-.8 1c0 2 3 2.4 3 5.2 0 1.6-.8 2.5-2.3 2.5zm7.6-.1h-2.3l-1.5-9.8h1.6l1.2 8 1.2-8H27l-1.6 9.8z" fill="#41bdc8"/><path fill="#3B3B3B" d="M35 72H1c-.6 0-1 .4-1 1v34c0 .6.4 1 1 1h34c.6 0 1-.4 1-1V73c0-.6-.4-1-1-1zM13.7 88.4h-1.5v-1.1c0-.7-.3-1-.8-1s-.8.3-.8 1v5.3c0 .7.3 1 .8 1s.8-.3.8-1v-1.4h1.5v1.3c0 1.6-.8 2.5-2.3 2.5s-2.3-.9-2.3-2.5v-5.1c0-1.6.8-2.5 2.3-2.5s2.3.9 2.3 2.5v1zm4.1 6.6c-1.5 0-2.3-.9-2.3-2.5v-.6H17v.7c0 .7.3 1 .8 1s.8-.3.8-1c0-2-3-2.4-3-5.2 0-1.6.8-2.5 2.3-2.5 1.5 0 2.3.9 2.3 2.5v.3h-1.5v-.4c0-.7-.3-1-.8-1s-.8.3-.8 1c0 2 3 2.4 3 5.2 0 1.6-.8 2.5-2.3 2.5zm7.6-.1h-2.3l-1.5-9.8h1.6l1.2 8 1.2-8H27l-1.6 9.8z"/></svg>