<svg xmlns="http://www.w3.org/2000/svg" width="20" height="20" viewBox="0 0 20 20"><g fill="#41bdc8"><path d="M10 .3C4.6.3.2 4.7.2 10.1s4.4 9.8 9.8 9.8 9.8-4.4 9.8-9.8S15.4.3 10 .3zm0 18c-4.5 0-8.3-3.7-8.3-8.3S5.5 1.8 10 1.8s8.3 3.7 8.3 8.3-3.8 8.2-8.3 8.2z"/><path d="M12.9 5.9c-.3-.2-.8-.2-1 .2l-5 7c-.2.3-.2.8.2 1 .1.1.3.1.4.1.2 0 .5-.1.6-.3l5-7c.3-.3.2-.8-.2-1zm-.4 4.4c-1.2 0-2.3 1-2.3 2.3s1 2.3 2.3 2.3 2.3-1 2.3-2.3-1.1-2.3-2.3-2.3zm0 3.5c-.7 0-1.3-.6-1.3-1.3s.6-1.3 1.3-1.3 1.3.6 1.3 1.3-.6 1.3-1.3 1.3zM9.8 7.5c0-1.2-1-2.3-2.3-2.3s-2.3 1-2.3 2.3 1 2.3 2.3 2.3 2.3-1.1 2.3-2.3zm-3.5 0c0-.7.6-1.3 1.3-1.3s1.3.6 1.3 1.3-.7 1.3-1.4 1.3-1.2-.6-1.2-1.3z"/></g></svg>