<svg xmlns="http://www.w3.org/2000/svg" width="20" height="20" viewBox="0 0 20 20"><title>prev_circle_20-20</title><path d="M10 20a10 10 0 1 1 10-10 10.016 10.016 0 0 1-10 10zm0-18.367a8.47 8.47 0 1 0 8.47 8.469A8.514 8.514 0 0 0 10 1.632z" fill="#aeaeae"/><path d="M14.796 8.163l.612-.816-.816-.714-.714.816a8.344 8.344 0 0 0-1.94-.918l.103-1.123-1.02-.204-.103 1.02c-.306 0-.612-.102-.918-.102a2.247 2.247 0 0 0-.816.102l-.102-1.02-1.123.102.102 1.123a8.998 8.998 0 0 0-2.04.918l-.613-.816-.816.714.612.714a6.683 6.683 0 0 0-1.53 1.837l-.409.612.408.612a7.326 7.326 0 0 0 6.225 3.674 7.557 7.557 0 0 0 6.224-3.674l.409-.612-.409-.612a6.662 6.662 0 0 0-1.326-1.633zM10 13.673a6.354 6.354 0 0 1-5.306-3.163A6.463 6.463 0 0 1 10 7.245a6.354 6.354 0 0 1 5.306 3.163A6.24 6.24 0 0 1 10 13.673z" fill="#aeaeae"/><path d="M12.245 9.796c0 .204.102.408.102.612a2.245 2.245 0 1 1-2.245-2.245h.408a.868.868 0 0 1 .51-.306 2.247 2.247 0 0 0-.816-.102 2.755 2.755 0 1 0 2.755 2.755 4.34 4.34 0 0 0-.204-1.122 1.104 1.104 0 0 0-.51.408z" fill="#aeaeae"/><path d="M10.102 8.98v-.307H10a1.837 1.837 0 1 0 1.837 1.837v-.306a.614.614 0 0 1-.408.102 1.348 1.348 0 0 1-1.327-1.326z" fill="#bdbdbd"/></svg>