<svg xmlns="http://www.w3.org/2000/svg" xmlns:xlink="http://www.w3.org/1999/xlink" height="251" viewBox="0 0 273 251" width="273"><svg height="40" viewBox="0 0 40 40" width="40" x="5" y="5"><title>add_plus_40-40_hover</title><circle cx="20" cy="20" r="20" fill="#43c9e0"/><path d="M26.002 20.87h-5.144v5.139h-1.714V20.87H14v-1.713h5.144v-5.141h1.714v5.139h5.144v1.715z" fill="#fff"/></svg><svg height="40" viewBox="0 0 40 40" width="40" x="50" y="5"><title>add_plus_40-40</title><circle cx="20" cy="20" r="19" fill="#fff" stroke="#43c9e0" stroke-linejoin="round" stroke-width="2"/><path d="M26.002 20.854h-5.144v5.139h-1.714v-5.139H14v-1.713h5.144V14h1.714v5.139h5.144v1.715z" fill="#43c9e0"/></svg><svg height="34" viewBox="0 0 34 34" width="34" x="5" y="50"><title>ok_circle_34-34_inactive</title><circle cx="17" cy="17" r="16" fill="#fff" stroke="#bdbdbd" stroke-linejoin="round" stroke-width="2"/><path d="M22.177 12.07l-.311-.267a1.254 1.254 0 0 0-1.748.11l-5.2 5.765-1.571-1.352a1.255 1.255 0 0 0-1.748.109l-.275.3a1.252 1.252 0 0 0 .088 1.768l.002.002 2.88 2.634a1.254 1.254 0 0 0 1.772-.06l.037-.04 6.213-7.21a1.252 1.252 0 0 0-.14-1.76z" fill="#bdbdbd"/></svg><svg height="34" viewBox="0 0 34 34" width="34" x="44" y="50"><g fill="#4B4B4B"><path d="M17 0C7.6 0 0 7.6 0 17s7.6 17 17 17 17-7.6 17-17S26.4 0 17 0zm0 32.3C8.5 32.3 1.7 25.5 1.7 17S8.5 1.7 17 1.7 32.3 8.5 32.3 17 25.5 32.3 17 32.3z"/><path d="M20.8 13.2c-.3-.3-.8-.3-1.2 0L17 15.8l-2.6-2.6c-.3-.3-.8-.3-1.2 0-.3.3-.3.8 0 1.2l2.6 2.6-2.6 2.6c-.3.3-.3.8 0 1.2.3.3.8.3 1.2 0l2.6-2.6 2.6 2.6c.3.3.8.3 1.2 0 .3-.3.3-.8 0-1.2L18.2 17l2.6-2.6c.3-.4.3-.9 0-1.2z"/></g></svg><svg height="34" viewBox="0 0 34 34" width="34" x="95" y="5"><path fill="#4B4B4B" d="M17 0C7.6 0 0 7.6 0 17s7.6 17 17 17 17-7.6 17-17S26.4 0 17 0zm3.8 19.6c.3.3.3.8 0 1.2-.3.3-.8.3-1.2 0L17 18.2l-2.6 2.6c-.3.3-.8.3-1.2 0-.3-.3-.3-.8 0-1.2l2.6-2.6-2.6-2.6c-.3-.3-.3-.8 0-1.2.3-.3.8-.3 1.2 0l2.6 2.6 2.6-2.6c.3-.3.8-.3 1.2 0 .3.3.3.8 0 1.2L18.2 17l2.6 2.6z"/></svg><svg height="34" viewBox="0 0 34 34" width="34" x="95" y="44"><title>ok_circle_34-34_hover</title><circle cx="17" cy="17" r="16" fill="#41bdc8" stroke="#43c9e0" stroke-linejoin="round" stroke-width="2"/><path d="M22.177 12.07l-.311-.267a1.254 1.254 0 0 0-1.748.11l-5.2 5.765-1.571-1.352a1.255 1.255 0 0 0-1.748.109l-.275.3a1.252 1.252 0 0 0 .088 1.768l.002.002 2.88 2.634a1.254 1.254 0 0 0 1.772-.06l.037-.04 6.213-7.21a1.252 1.252 0 0 0-.14-1.76z" fill="#fff"/></svg><svg height="34" viewBox="0 0 34 34" width="34" x="5" y="89"><title>arrow_ok_hover</title><circle cx="17" cy="17" r="16" fill="#43c9e0" stroke="#43c9e0" stroke-linejoin="round" stroke-width="2"/><path d="M17.486 24.268l4.45-4.45a.695.695 0 1 0-.984-.982l-3.262 3.262V10.215a.695.695 0 1 0-1.39 0v11.883l-3.263-3.262a.695.695 0 1 0-.983.983l4.449 4.45a.695.695 0 0 0 .983 0" fill="#fff"/></svg><svg height="34" viewBox="0 0 34 34" width="34" x="44" y="89"><title>arrow_ok</title><circle cx="17" cy="17" r="16" fill="#fff" stroke="#43c9e0" stroke-linejoin="round" stroke-width="2"/><path d="M17.486 23.748l4.45-4.45a.695.695 0 1 0-.984-.982l-3.262 3.262V9.695a.695.695 0 1 0-1.39 0v11.883l-3.263-3.262a.695.695 0 1 0-.983.983l4.449 4.45a.695.695 0 0 0 .983 0" fill="#43c9e0"/></svg><svg height="34" viewBox="0 0 34 34" width="34" x="83" y="89"><title>ok_circle_36-36_active</title><circle cx="17" cy="17" r="16" fill="#fff" stroke="#43c9e0" stroke-linejoin="round" stroke-width="2"/><path d="M22.177 12.07l-.311-.267a1.254 1.254 0 0 0-1.748.11l-5.2 5.765-1.571-1.352a1.255 1.255 0 0 0-1.748.109l-.275.3a1.252 1.252 0 0 0 .088 1.768l.002.002 2.88 2.634a1.254 1.254 0 0 0 1.772-.06l.037-.04 6.213-7.21a1.252 1.252 0 0 0-.14-1.76z" fill="#43c9e0"/></svg><svg height="34" viewBox="0 0 34 34" width="34" x="134" y="5"><title>resend_hover</title><circle cx="17" cy="17" r="16" fill="#43c9e0" stroke="#43c9e0" stroke-linejoin="round" stroke-width="2"/><path d="M24.398 15.602L18.801 10v3.199C13.199 14 10.801 18 10 22c2-2.801 4.801-4.078 8.801-4.078v3.277z" fill="#fff"/></svg><svg height="34" viewBox="0 0 34 34" width="34" x="134" y="44"><title>resend</title><circle cx="17" cy="17" r="16" fill="#fff" stroke="#43c9e0" stroke-linejoin="round" stroke-width="2"/><path fill="none" d="M11 9.5h12v14.981H11z"/><path fill="none" d="M11 9.5h12v14.981H11z"/><path d="M24.398 15.602L18.801 10v3.199C13.199 14 10.801 18 10 22c2-2.801 4.801-4.078 8.801-4.078v3.277z" fill="#43c9e0"/></svg><svg height="34" viewBox="0 0 34 34" width="34" x="134" y="83"><title>download</title><circle cx="17" cy="17" r="16" fill="#fff" stroke="#43c9e0" stroke-linejoin="round" stroke-width="2"/><path d="M22.402 22.47H11.598a.6.6 0 0 0-.598.599v.798a.6.6 0 0 0 .598.598h10.8a.6.6 0 0 0 .598-.598v-.798a.59.59 0 0 0-.594-.598" fill="#50bfd8"/><path fill="none" d="M11 9.5h12v14.981H11z"/><path d="M16.582 21.4a.597.597 0 0 0 .421.177.59.59 0 0 0 .422-.177l4.091-4.092a.602.602 0 0 0 0-.847l-.566-.566a.603.603 0 0 0-.847 0L17.999 18v-7.902a.6.6 0 0 0-.598-.598h-.798a.597.597 0 0 0-.598.598v7.904l-2.106-2.105a.603.603 0 0 0-.847 0l-.566.566a.603.603 0 0 0 0 .848z" fill="#50bfd8"/><path fill="none" d="M11 9.5h12v14.981H11z"/></svg><svg height="34" viewBox="0 0 34 34" width="34" x="5" y="128"><title>download_hover</title><circle cx="17" cy="17" r="16" fill="#43c9e0" stroke="#43c9e0" stroke-linejoin="round" stroke-width="2"/><path d="M22.402 22.47H11.598a.6.6 0 0 0-.598.599v.798a.6.6 0 0 0 .598.598h10.8a.6.6 0 0 0 .598-.598v-.798a.59.59 0 0 0-.594-.598" fill="#fff"/><path fill="none" d="M11 9.5h12v14.981H11z"/><path d="M16.582 21.4a.597.597 0 0 0 .421.177.59.59 0 0 0 .422-.177l4.091-4.092a.602.602 0 0 0 0-.847l-.566-.566a.603.603 0 0 0-.847 0L17.999 18v-7.902a.6.6 0 0 0-.598-.598h-.798a.597.597 0 0 0-.598.598v7.904l-2.106-2.105a.603.603 0 0 0-.847 0l-.566.566a.603.603 0 0 0 0 .848z" fill="#fff"/><path fill="none" d="M11 9.5h12v14.981H11z"/></svg><svg height="29" viewBox="0 0 34 29" width="34" x="44" y="128"><title>Veplex_logo-02</title><path d="M22.91 0l-5.938 10.09L11.035 0H0l16.972 29L34 0H22.91zm1.456 2.426h5.377l-8.626 14.72-2.689-4.63zm-14.732 0l5.938 10.09-2.689 4.63-8.626-14.72h5.377zm4.65 17.091l2.688-4.631 2.689 4.631-2.689 4.631z" fill="#2dc3dc"/><path fill="#3c8f96" d="M17.42 9.373l-.448.716 1.456 2.426.392-.717-1.4-2.425z"/></svg><svg height="20" viewBox="0 0 20 20" width="20" x="83" y="128"><title>add_20-20_hover</title><path d="M10 0a10 10 0 1 0 10 10A10 10 0 0 0 10 0zm2.941 11.03h-1.765v1.764a1.16 1.16 0 0 1-1.143 1.177H10a1.042 1.042 0 0 1-1.03-1.177v-1.912H7.06A1.16 1.16 0 0 1 5.882 9.74v-.033A1.082 1.082 0 0 1 7.06 8.529h1.91V6.912a1.16 1.16 0 0 1 1.143-1.177h.033a1.082 1.082 0 0 1 1.177 1.177v1.912h1.617a1.16 1.16 0 0 1 1.177 1.143V10a1.042 1.042 0 0 1-1.177 1.03z" fill="#2ec1d9"/></svg><svg height="20" viewBox="0 0 20 20" width="20" x="108" y="128"><title>prev_circle_20-20_hover</title><path d="M10 20a10 10 0 1 1 10-10 10.016 10.016 0 0 1-10 10zm0-18.367a8.47 8.47 0 1 0 8.47 8.469A8.514 8.514 0 0 0 10 1.632z" fill="#fff"/><path d="M14.796 8.163l.612-.816-.816-.714-.714.816a8.344 8.344 0 0 0-1.94-.918l.103-1.123-1.02-.204-.103 1.02c-.306 0-.612-.102-.918-.102a2.247 2.247 0 0 0-.816.102l-.102-1.02-1.123.102.102 1.123a8.998 8.998 0 0 0-2.04.918l-.613-.816-.816.714.612.714a6.683 6.683 0 0 0-1.53 1.837l-.409.612.408.612a7.326 7.326 0 0 0 6.225 3.674 7.557 7.557 0 0 0 6.224-3.674l.409-.612-.409-.612a6.662 6.662 0 0 0-1.326-1.633zM10 13.673a6.354 6.354 0 0 1-5.306-3.163A6.463 6.463 0 0 1 10 7.245a6.354 6.354 0 0 1 5.306 3.163A6.24 6.24 0 0 1 10 13.673z" fill="#fff"/><path d="M12.245 9.796c0 .204.102.408.102.612a2.245 2.245 0 1 1-2.245-2.245h.408a.868.868 0 0 1 .51-.306 2.247 2.247 0 0 0-.816-.102 2.755 2.755 0 1 0 2.755 2.755 4.34 4.34 0 0 0-.204-1.122 1.104 1.104 0 0 0-.51.408z" fill="#fff"/><path d="M10.102 8.98v-.307H10a1.837 1.837 0 1 0 1.837 1.837v-.306a.614.614 0 0 1-.408.102 1.348 1.348 0 0 1-1.327-1.326z" fill="#fff"/></svg><svg height="20" viewBox="0 0 20 20" width="20" x="133" y="128"><title>prev_circle_20-20</title><path d="M10 20a10 10 0 1 1 10-10 10.016 10.016 0 0 1-10 10zm0-18.367a8.47 8.47 0 1 0 8.47 8.469A8.514 8.514 0 0 0 10 1.632z" fill="#3b3b3b"/><path d="M14.796 8.163l.612-.816-.816-.714-.714.816a8.344 8.344 0 0 0-1.94-.918l.103-1.123-1.02-.204-.103 1.02c-.306 0-.612-.102-.918-.102a2.247 2.247 0 0 0-.816.102l-.102-1.02-1.123.102.102 1.123a8.998 8.998 0 0 0-2.04.918l-.613-.816-.816.714.612.714a6.683 6.683 0 0 0-1.53 1.837l-.409.612.408.612a7.326 7.326 0 0 0 6.225 3.674 7.557 7.557 0 0 0 6.224-3.674l.409-.612-.409-.612a6.662 6.662 0 0 0-1.326-1.633zM10 13.673a6.354 6.354 0 0 1-5.306-3.163A6.463 6.463 0 0 1 10 7.245a6.354 6.354 0 0 1 5.306 3.163A6.24 6.24 0 0 1 10 13.673z" fill="#3b3b3b"/><path d="M12.245 9.796c0 .204.102.408.102.612a2.245 2.245 0 1 1-2.245-2.245h.408a.868.868 0 0 1 .51-.306 2.247 2.247 0 0 0-.816-.102 2.755 2.755 0 1 0 2.755 2.755 4.34 4.34 0 0 0-.204-1.122 1.104 1.104 0 0 0-.51.408z" fill="#3b3b3b"/><path d="M10.102 8.98v-.307H10a1.837 1.837 0 1 0 1.837 1.837v-.306a.614.614 0 0 1-.408.102 1.348 1.348 0 0 1-1.327-1.326z" fill="#3b3b3b"/></svg><svg height="20" viewBox="0 0 20 20" width="20" x="173" y="5"><style>.st0{fill:#fff;stroke:#43c9e0;stroke-width:2;stroke-linejoin:round}.st1{fill:#43c9e0}</style><title>plus_20-20</title><circle class="st0" cx="10" cy="10" r="9"/><path class="st1" d="M15 10.7h-4.3V15H9.3v-4.3H5V9.3h4.3V5h1.4v4.3H15v1.4z"/></svg><svg height="20" viewBox="0 0 20 20" width="20" x="173" y="30"><title>reset</title><circle cx="10" cy="10" r="9" fill="none" stroke="#43c9e0" stroke-width="2"/><path d="M5.058 9.248a4.796 4.796 0 0 1 9.56.495h1.29a.093.093 0 0 1 .065.15l-1.951 2.656a.082.082 0 0 1-.133 0l-1.95-2.656a.093.093 0 0 1 .064-.15h1.288a3.473 3.473 0 1 0-4.027 3.485.66.66 0 0 1-.2 1.306 4.803 4.803 0 0 1-4.006-5.286" fill="#43c9e0"/><path fill="none" d="M5 5h11v9.542H5z"/></svg><svg height="20" viewBox="0 0 20 20" width="20" x="173" y="55"><title>dollar</title><path d="M10.52 9.11c-.66-.32-1.31-.48-1.31-1a.575.575 0 0 1 .71-.611 1.324 1.324 0 0 1 .83.311 1.024 1.024 0 0 0 .67.265.89.89 0 0 0 .84-.9 1 1 0 0 0-.48-.829 3.112 3.112 0 0 0-.86-.461v-.419a.737.737 0 0 0-.738-.736H9.65a.737.737 0 0 0-.74.734v.463a2.461 2.461 0 0 0-1.5 2.221c0 1.44 1.28 2.051 2.35 2.55.86.394 1.14.64 1.14 1a.964.964 0 0 1-1.1.915 1.545 1.545 0 0 1-1.02-.31 1.055 1.055 0 0 0-.68-.291.891.891 0 0 0-.84.9 1.009 1.009 0 0 0 .45.807 3.832 3.832 0 0 0 1.2.566v.32a.737.737 0 0 0 .738.736h.532a.737.737 0 0 0 .74-.734v-.383a2.588 2.588 0 0 0 1.81-2.579c0-1.319-.92-1.904-2.21-2.535zM10 0a9.993 9.993 0 1 0 .014 0H10zm.01 18.389c-3.94 0-8.39-4.443-8.39-8.386s4.45-8.386 8.39-8.386 8.39 4.444 8.39 8.386-4.45 8.386-8.39 8.386z" fill="#43c9e0"/></svg><svg height="20" viewBox="0 0 20 20" width="20" x="173" y="80"><title>del_circle_20-20_hover</title><path d="M10 0a10 10 0 1 0 10 10A10 10 0 0 0 10 0zm2.941 11.03H7.06a1.16 1.16 0 0 1-1.177-1.144v-.033A1.082 1.082 0 0 1 7.06 8.676h5.882a1.176 1.176 0 0 1 0 2.353z" fill="#474747"/></svg><svg height="20" viewBox="0 0 20 20" width="20" x="173" y="105"><title>del_circle_20-20</title><path d="M10 0a10 10 0 1 0 10 10A10 10 0 0 0 10 0zm0 17.647a7.846 7.846 0 0 1-7.794-7.794A7.846 7.846 0 0 1 10 2.059a7.846 7.846 0 0 1 7.794 7.794A7.846 7.846 0 0 1 10 17.647z" fill="#474747"/><path d="M12.941 8.824H7.06a1.16 1.16 0 0 0-1.177 1.143V10a1.082 1.082 0 0 0 1.177 1.176h5.882a1.176 1.176 0 0 0 0-2.352z" fill="#474747"/></svg><svg height="20" viewBox="0 0 20 20" width="20" x="173" y="130"><title>info_circle_20-20</title><path d="M10 5a1.25 1.25 0 1 0 1.25 1.25A1.25 1.25 0 0 0 10 5zm0 3.75a1.25 1.25 0 0 0-1.251 1.249v3.751a1.25 1.25 0 1 0 2.5 0V10A1.25 1.25 0 0 0 10 8.75zM10 0a10 10 0 1 0 10 10A10 10 0 0 0 10 0zm0 18.125a8.125 8.125 0 1 1 8.124-8.126V10A8.134 8.134 0 0 1 10 18.125z" fill="#3b3b3b"/></svg><svg height="20" viewBox="0 0 20 20" width="20" x="5" y="167"><title>info_circle_20-20_hover</title><path d="M10 5a1.25 1.25 0 1 0 1.25 1.25A1.25 1.25 0 0 0 10 5zm0 3.75a1.25 1.25 0 0 0-1.251 1.249v3.751a1.25 1.25 0 1 0 2.5 0V10A1.25 1.25 0 0 0 10 8.75zM10 0a10 10 0 1 0 10 10A10 10 0 0 0 10 0zm0 18.125a8.125 8.125 0 1 1 8.124-8.126V10A8.134 8.134 0 0 1 10 18.125z" fill="#fff"/></svg><svg height="20" viewBox="0 0 20 20" width="20" x="30" y="167"><title>add_20-20</title><path d="M10 0a10 10 0 1 0 10 10A10 10 0 0 0 10 0zm0 17.647a7.846 7.846 0 0 1-7.794-7.794 7.72 7.72 0 0 1 7.793-7.647H10A7.846 7.846 0 0 1 17.794 10a7.72 7.72 0 0 1-7.793 7.647H10z" fill="#2ec1d9"/><path d="M12.941 8.824h-1.765V6.912a1.16 1.16 0 0 0-1.143-1.177H10a1.042 1.042 0 0 0-1.03 1.177v1.912H7.06a1.005 1.005 0 0 0-1.03.98v.049a1.137 1.137 0 0 0 1.03 1.176h1.91v1.765a1.16 1.16 0 0 0 1.143 1.177h.033a1.042 1.042 0 0 0 1.03-1.177V11.03h1.764a1.16 1.16 0 0 0 1.177-1.143v-.033a1.042 1.042 0 0 0-1.177-1.03z" fill="#2ec1d9"/></svg><svg height="20" viewBox="0 0 20 20" width="20" x="55" y="167"><title>reset_white</title><circle cx="10" cy="10" r="9" fill="none" stroke="#fff" stroke-width="2"/><path d="M5.058 9.248a4.796 4.796 0 0 1 9.56.495h1.29a.093.093 0 0 1 .065.15l-1.951 2.656a.082.082 0 0 1-.133 0l-1.95-2.656a.093.093 0 0 1 .064-.15h1.288a3.473 3.473 0 1 0-4.027 3.485.66.66 0 0 1-.2 1.306 4.803 4.803 0 0 1-4.006-5.286" fill="#fff"/><path fill="none" d="M5 5h11v9.542H5z"/></svg><svg height="19.986" viewBox="0 0 20 20" width="19.986" x="80" y="167"><title>dollar_hover</title><path d="M10.506 9.11c-.66-.32-1.31-.48-1.31-1a.575.575 0 0 1 .71-.611 1.324 1.324 0 0 1 .83.311 1.024 1.024 0 0 0 .67.265.89.89 0 0 0 .84-.9 1 1 0 0 0-.48-.829 3.112 3.112 0 0 0-.86-.461v-.419a.737.737 0 0 0-.738-.736h-.532a.737.737 0 0 0-.74.734v.463a2.461 2.461 0 0 0-1.5 2.221c0 1.44 1.28 2.051 2.35 2.55.86.394 1.14.64 1.14 1a.964.964 0 0 1-1.1.915 1.545 1.545 0 0 1-1.02-.31 1.055 1.055 0 0 0-.68-.291.891.891 0 0 0-.84.9 1.009 1.009 0 0 0 .45.807 3.832 3.832 0 0 0 1.2.566v.32a.737.737 0 0 0 .738.736h.532a.737.737 0 0 0 .74-.734v-.383a2.588 2.588 0 0 0 1.81-2.579c0-1.319-.92-1.904-2.21-2.535zM9.986 0A9.993 9.993 0 1 0 10 0h-.014zm.01 18.389c-3.94 0-8.39-4.443-8.39-8.386s4.45-8.386 8.39-8.386 8.39 4.444 8.39 8.386-4.45 8.386-8.39 8.386z" fill="#fff"/></svg><svg height="19.7" viewBox="0 0 20 20" width="19.7" x="105" y="167"><title>invoice</title><circle cx="9.85" cy="9.85" r="9" fill="none" stroke="#2dc3dc" stroke-width="1.7"/><path d="M6.974 13.508h1.59v1.384h-1.59v-1.384zm2.206 0h1.64v1.384H9.18v-1.384zm2.256 0h1.59v1.384h-1.59v-1.384zM6.974 11.25h1.59v1.436h-1.59V11.25zm2.206 0h1.64v1.436H9.18V11.25zm2.256 0h1.59v1.436h-1.59V11.25zM6.974 8.38h6.052v1.948H6.974V8.38zm1.18-3.552l.885-.756h2.807v3.384H8.154V4.828zM8.711 3.2L7.282 4.433v1.741H6v9.744h8V6.174h-1.282V3.2H8.711z" fill="#2dc3dc"/></svg><svg height="19.7" viewBox="0 0 20 20" width="19.7" x="130" y="167"><title>offer_circle_20-20</title><circle cx="9.85" cy="9.85" r="9" fill="none" stroke="#41bdc8" stroke-width="1.7"/><path d="M10.634 13.337a.673.673 0 0 1-.947 0L5.994 9.89a1.524 1.524 0 0 1-.47-.839c-.047-.76-.014-2.217.009-2.989a.548.548 0 0 1 .529-.524 13.841 13.841 0 0 1 3.283.147l4.063 3.662a1.033 1.033 0 0 1-.24 1.18zM7.4 6.657a.568.568 0 0 0-.8 0 .562.562 0 0 0-.005.794l.005.005a.568.568 0 0 0 .8 0 .562.562 0 0 0 .005-.795z" fill="#41bdc8"/></svg><svg height="19.7" viewBox="0 0 20 20" width="19.7" x="155" y="167"><title>correction</title><circle cx="9.85" cy="9.85" r="9" fill="none" stroke="#2dc3dc" stroke-width="1.7"/><path d="M6.249 6h-.832A.394.394 0 0 0 5 6.417v.832a.394.394 0 0 0 .417.417h.832a.394.394 0 0 0 .417-.417v-.832A.394.394 0 0 0 6.25 6m-.001 3.332h-.832A.394.394 0 0 0 5 9.75v.834a.394.394 0 0 0 .417.417h.832a.394.394 0 0 0 .417-.417V9.75a.394.394 0 0 0-.417-.418m0 3.336h-.832a.394.394 0 0 0-.417.417v.832a.394.394 0 0 0 .417.417h.832a.394.394 0 0 0 .417-.417v-.832a.394.394 0 0 0-.417-.417M14.583 6H8.75a.394.394 0 0 0-.418.417v.832a.394.394 0 0 0 .418.417h5.833A.394.394 0 0 0 15 7.25v-.832A.394.394 0 0 0 14.583 6m0 3.332H8.75a.395.395 0 0 0-.418.418v.834a.394.394 0 0 0 .418.417h5.833a.394.394 0 0 0 .417-.417V9.75a.394.394 0 0 0-.417-.418m0 3.336H8.75a.394.394 0 0 0-.418.417v.832a.394.394 0 0 0 .418.417h5.833a.394.394 0 0 0 .417-.417v-.832a.394.394 0 0 0-.417-.417" fill="#2dc3dc"/><path fill="none" d="M5 6h10v8.334H5z"/></svg><svg height="19.7" viewBox="0 0 20 20" width="19.7" x="198" y="5"><title>correction_white</title><circle cx="9.85" cy="9.85" r="9" fill="none" stroke="#fff" stroke-width="1.7"/><path d="M6.249 6h-.832A.394.394 0 0 0 5 6.417v.832a.394.394 0 0 0 .417.417h.832a.394.394 0 0 0 .417-.417v-.832A.394.394 0 0 0 6.25 6m-.001 3.332h-.832A.394.394 0 0 0 5 9.75v.834a.394.394 0 0 0 .417.417h.832a.394.394 0 0 0 .417-.417V9.75a.394.394 0 0 0-.417-.418m0 3.336h-.832a.394.394 0 0 0-.417.417v.832a.394.394 0 0 0 .417.417h.832a.394.394 0 0 0 .417-.417v-.832a.394.394 0 0 0-.417-.417M14.583 6H8.75a.394.394 0 0 0-.418.417v.832a.394.394 0 0 0 .418.417h5.833A.394.394 0 0 0 15 7.25v-.832A.394.394 0 0 0 14.583 6m0 3.332H8.75a.395.395 0 0 0-.418.418v.834a.394.394 0 0 0 .418.417h5.833a.394.394 0 0 0 .417-.417V9.75a.394.394 0 0 0-.417-.418m0 3.336H8.75a.394.394 0 0 0-.418.417v.832a.394.394 0 0 0 .418.417h5.833a.394.394 0 0 0 .417-.417v-.832a.394.394 0 0 0-.417-.417" fill="#fff"/><path fill="none" d="M5 6h10v8.334H5z"/></svg><svg height="19.7" viewBox="0 0 20 20" width="19.7" x="198" y="30"><title>edit</title><circle cx="9.85" cy="9.85" r="9" fill="none" stroke="#41bdc8" stroke-width="1.7"/><path d="M10.526 6.544l2.083 1.674-4.232 5.275-2.082-1.674zm3.252-.814l-.929-.746a.835.835 0 0 0-1.174.128l-.714.89 2.083 1.674.833-1.039a.645.645 0 0 0-.098-.907zm-8.177 8.838a.215.215 0 0 0 .286.226l2.037-.732-2.082-1.678z" fill="#41bdc8"/></svg><svg height="19.7" viewBox="0 0 20 20" width="19.7" x="198" y="55"><title>offer_circle_20-20_hover</title><circle cx="9.85" cy="9.85" r="9" fill="none" stroke="#fff" stroke-width="1.7"/><path d="M10.634 13.337a.673.673 0 0 1-.947 0L5.994 9.89a1.524 1.524 0 0 1-.47-.839c-.047-.76-.014-2.217.009-2.989a.548.548 0 0 1 .529-.524 13.841 13.841 0 0 1 3.283.147l4.063 3.662a1.033 1.033 0 0 1-.24 1.18zM7.4 6.657a.568.568 0 0 0-.8 0 .562.562 0 0 0-.005.794l.005.005a.568.568 0 0 0 .8 0 .562.562 0 0 0 .005-.795z" fill="#fff"/></svg><svg height="19.7" viewBox="0 0 20 20" width="19.7" x="198" y="80"><title>invoice_white</title><circle cx="9.85" cy="9.85" r="9" fill="none" stroke="#fff" stroke-width="1.7"/><path d="M6.974 13.508h1.59v1.384h-1.59v-1.384zm2.206 0h1.64v1.384H9.18v-1.384zm2.256 0h1.59v1.384h-1.59v-1.384zM6.974 11.25h1.59v1.436h-1.59V11.25zm2.206 0h1.64v1.436H9.18V11.25zm2.256 0h1.59v1.436h-1.59V11.25zM6.974 8.38h6.052v1.948H6.974V8.38zm1.18-3.552l.885-.756h2.807v3.384H8.154V4.828zM8.711 3.2L7.282 4.433v1.741H6v9.744h8V6.174h-1.282V3.2H8.711z" fill="#fff"/></svg><svg height="19.7" viewBox="0 0 20 20" width="19.7" x="198" y="104"><title>edit_hover</title><circle cx="9.85" cy="9.85" r="9" fill="none" stroke="#fff" stroke-width="1.7"/><path d="M10.526 6.544l2.083 1.674-4.232 5.275-2.082-1.674zm3.252-.814l-.929-.746a.835.835 0 0 0-1.174.128l-.714.89 2.083 1.674.833-1.039a.645.645 0 0 0-.098-.907zm-8.177 8.838a.215.215 0 0 0 .286.226l2.037-.732-2.082-1.678z" fill="#fff"/></svg><svg height="19.7" viewBox="0 0 20 20" width="19.7" x="198" y="129"><title>acc_hover</title><circle cx="9.85" cy="9.85" r="9" fill="none" stroke="#fff" stroke-width="1.7"/><path d="M14.146 5.877a2.9 2.9 0 0 0-4.644 3.348l-4.5 4.502-.004 1.298 2.518.002v-1.224H8.74V12.58h1.224v-1.224l.834-.834a2.9 2.9 0 0 0 3.348-4.644m-.921 2.161a.877.877 0 1 1 0-1.24.877.877 0 0 1 0 1.24" fill="#fff"/><path fill="none" d="M4.998 5h10v10.027h-10z"/></svg><svg height="19.7" viewBox="0 0 20 20" width="19.7" x="198" y="154"><title>acc</title><circle cx="9.85" cy="9.85" r="9" fill="none" stroke="#43c9e0" stroke-width="1.7"/><path d="M14.146 5.877a2.9 2.9 0 0 0-4.644 3.348l-4.5 4.502-.004 1.298 2.518.002v-1.224H8.74V12.58h1.224v-1.224l.834-.834a2.9 2.9 0 0 0 3.348-4.644m-.921 2.161a.877.877 0 1 1 0-1.24.877.877 0 0 1 0 1.24" fill="#43c9e0"/><path fill="none" d="M4.998 5h10v10.027h-10z"/></svg><svg height="19.6" viewBox="0 0 20 20" width="19.6" x="5" y="192"><title>stat_circle_hover</title><path d="M9.8 0a9.8 9.8 0 1 0 9.8 9.8A9.816 9.816 0 0 0 9.8 0zm0 18a8.344 8.344 0 0 1-8.3-8.3 8.258 8.258 0 0 1 8.3-8.2 8.344 8.344 0 0 1 8.3 8.3A8.258 8.258 0 0 1 9.8 18z" fill="#fff"/><path d="M6.8 9.8a.945.945 0 0 0-1 1v2.9a.945.945 0 0 0 1 1 .945.945 0 0 0 1-1v-2.9a.945.945 0 0 0-1-1zm6-2.1a.945.945 0 0 0-1 1v5a1 1 0 0 0 2 0v-5a.945.945 0 0 0-1-1zm-3-3a.945.945 0 0 0-1 1v8a.945.945 0 0 0 1 1 .945.945 0 0 0 1-1v-8a.945.945 0 0 0-1-1z" fill="#fff"/></svg><svg height="19.6" viewBox="0 0 20 20" width="19.6" x="30" y="192"><title>stat_circle</title><path d="M9.8 0a9.8 9.8 0 1 0 9.8 9.8A9.816 9.816 0 0 0 9.8 0zm0 18a8.344 8.344 0 0 1-8.3-8.3 8.258 8.258 0 0 1 8.3-8.2 8.344 8.344 0 0 1 8.3 8.3A8.258 8.258 0 0 1 9.8 18z" fill="#41bdc8"/><path d="M6.8 9.8a.945.945 0 0 0-1 1v2.9a.945.945 0 0 0 1 1 .945.945 0 0 0 1-1v-2.9a.945.945 0 0 0-1-1zm6-2.1a.945.945 0 0 0-1 1v5a1 1 0 0 0 2 0v-5a.945.945 0 0 0-1-1zm-3-3a.945.945 0 0 0-1 1v8a.945.945 0 0 0 1 1 .945.945 0 0 0 1-1v-8a.945.945 0 0 0-1-1z" fill="#41bdc8"/></svg><svg height="17.138" viewBox="0 0 11 18" width="11" x="180" y="167"><title>next_button</title><path fill="#50c0d9" d="M2.431 17.138L11 8.569 2.431 0 0 2.431l6.138 6.138L0 14.706l2.431 2.432z"/></svg><svg height="16.002" viewBox="0 0 14 17" width="13" x="55" y="192"><title>user_man</title><path fill="none" d="M0 .001h13v16H0z"/><path d="M6.5 6.316a3.254 3.254 0 0 0 3.337-3.158A3.254 3.254 0 0 0 6.501.001a3.254 3.254 0 0 0-3.337 3.157 3.254 3.254 0 0 0 3.337 3.158m4.477 1.53l-.006-.002c-.434-.1-1.764-.276-1.764-.276a.3.3 0 0 0-.365.171l-2.003 5.2a.369.369 0 0 1-.679 0l-2.002-5.2a.295.295 0 0 0-.278-.184c-.028 0-1.396.181-1.852.289A2.703 2.703 0 0 0 0 10.5v4.326A1.209 1.209 0 0 0 1.24 16h10.52A1.209 1.209 0 0 0 13 14.827v-4.34a2.797 2.797 0 0 0-2.022-2.641" fill="#3b3b3b"/><path d="M7.256 7.468a.438.438 0 0 0-.315-.123H6.06a.437.437 0 0 0-.315.123.37.37 0 0 0-.054.456l.47.673-.22 1.76.435 1.094a.135.135 0 0 0 .249 0l.434-1.093-.22-1.761.47-.673a.371.371 0 0 0-.053-.456" fill="#3b3b3b"/></svg><svg height="14" viewBox="0 0 16 14" width="15.955" x="73" y="192"><title>home_old</title><path d="M3.478 13.3a.789.789 0 0 1-.8-.8v-5a.32.32 0 0 0-.3-.3h-.9a.752.752 0 0 1-.7-.5.83.83 0 0 1 .2-.8l5.9-4.8a1.504 1.504 0 0 1 1.1-.4 1.504 1.504 0 0 1 1.1.4l5.9 4.8a.778.778 0 0 1 .2.8.752.752 0 0 1-.7.5h-1a.32.32 0 0 0-.3.3v5a.789.789 0 0 1-.8.8h-8.9z" fill="#fff"/><path d="M7.978 1.5a.735.735 0 0 1 .6.2l5.9 4.8h-1a.945.945 0 0 0-1 1v5h-9v-5a.945.945 0 0 0-1-1h-1l5.9-4.8a.735.735 0 0 1 .6-.2m0-1.5a3.022 3.022 0 0 0-1.6.5l-5.9 4.8a1.731 1.731 0 0 0-.4 1.7 1.504 1.504 0 0 0 1.4 1h.5v4.5a1.538 1.538 0 0 0 1.5 1.5h9a1.538 1.538 0 0 0 1.5-1.5V8h.5a1.504 1.504 0 0 0 1.4-1 1.574 1.574 0 0 0-.5-1.7L9.578.5a3.022 3.022 0 0 0-1.6-.5z" fill="#636363"/></svg><svg height="13.914" viewBox="0 0 16 14" width="15.955" x="94" y="192"><title>home_old_hover</title><path d="M3.555 13.219a.784.784 0 0 1-.795-.796V7.454a.317.317 0 0 0-.299-.298h-.894a.747.747 0 0 1-.696-.497.773.773 0 0 1 .199-.795l5.864-4.77A1.495 1.495 0 0 1 8.027.695a1.495 1.495 0 0 1 1.093.397l5.864 4.77a.773.773 0 0 1 .2.796.747.747 0 0 1-.697.497h-.993a.317.317 0 0 0-.299.298v4.97a.784.784 0 0 1-.795.795H3.555z" fill="#fff"/><path d="M8.027 1.49a1.413 1.413 0 0 1 .597.2l5.863 4.77h-.993a.939.939 0 0 0-.994.994v4.97H3.555v-4.97a.939.939 0 0 0-.994-.994h-.994l5.864-4.77a.73.73 0 0 1 .596-.2m0-1.49a2.437 2.437 0 0 0-1.59.596L.573 5.268a1.565 1.565 0 0 0-.497 1.69 1.495 1.495 0 0 0 1.392.993h.497v4.472a1.529 1.529 0 0 0 1.49 1.491H12.4a1.529 1.529 0 0 0 1.491-1.49V7.95h.596a1.495 1.495 0 0 0 1.392-.994 1.565 1.565 0 0 0-.497-1.69L9.617.498A3.003 3.003 0 0 0 8.027 0z" fill="#2ec1d9"/></svg><svg height="14.017" viewBox="0 0 16 15" width="15.716" x="223" y="5"><title>home</title><path d="M.54 8.346h1.28v5.122a.55.55 0 0 0 .55.55h10.7a.55.55 0 0 0 .549-.55V8.346h1.554a.547.547 0 0 0 .384-.933L8.405.16A.546.546 0 0 0 7.64.151L.168 7.404a.549.549 0 0 0-.128.6.535.535 0 0 0 .5.342zM8 1.321l5.852 5.927h-.785a.55.55 0 0 0-.55.55v5.121h-9.6V7.8a.55.55 0 0 0-.546-.55h-.475z" fill="#636363"/></svg><svg height="14.017" viewBox="0 0 16 15" width="15.716" x="223" y="25"><title>home</title><path d="M.54 8.346h1.28v5.122a.55.55 0 0 0 .55.55h10.7a.55.55 0 0 0 .549-.55V8.346h1.554a.547.547 0 0 0 .384-.933L8.405.16A.546.546 0 0 0 7.64.151L.168 7.404a.549.549 0 0 0-.128.6.535.535 0 0 0 .5.342zM8 1.321l5.852 5.927h-.785a.55.55 0 0 0-.55.55v5.121h-9.6V7.8a.55.55 0 0 0-.546-.55h-.475z" fill="#43c9e0"/></svg><svg height="14.116" viewBox="0 0 15 15" width="14" x="223" y="44"><title>horn</title><path fill="none" d="M0 .116h14v14H0z"/><path d="M3.998 3.577l-1.937.004A1.562 1.562 0 0 0 .532 5.128v.042a1.219 1.219 0 0 0 .003 2.016 1.563 1.563 0 0 0 1.438 1.679l.033.002s.584.024.535.955l.004 3.677a.488.488 0 0 0 .5.593 1.248 1.248 0 0 0 .87-2.016c.65-.672-.276-1.061.093-2.158a2.79 2.79 0 0 0 .498-1.085l.024-4.697a.475.475 0 0 0-.532-.559m8.872.948l-.006-4.29c0-.562-.476.061-.476.061C10.14 3.794 5.49 3.522 5.49 3.522a.397.397 0 0 0-.46.47l.007 4.051a.47.47 0 0 0 .475.467h.016c5.2-.012 6.974 3.27 6.974 3.27s.41.506.383-.025l-.01-4.283a1.662 1.662 0 0 0-.004-2.947m-5.117-.572a7.11 7.11 0 0 0 4.537-2.722s-.573 2.68-4.537 2.722m5.687 2.523a2.211 2.211 0 0 0-.432-1.59 1.292 1.292 0 0 1 .432 1.59" fill="#3b3b3b"/></svg><svg height="13.999" viewBox="0 0 15 14" width="14.019" x="223" y="63"><title>offer_tab</title><path d="M8.967 13.659a1.176 1.176 0 0 1-1.655 0L.863 7.633a2.659 2.659 0 0 1-.82-1.466C-.042 4.837.016 2.292.057.943A.959.959 0 0 1 .982.025c1.731-.04 5.4-.082 5.74.257l7.1 6.4c.455.455.042 1.605-.418 2.061zM3.317 1.982a.992.992 0 0 0-1.4 0 .981.981 0 0 0-.005 1.388l.004.004a.992.992 0 0 0 1.4 0 .981.981 0 0 0 .005-1.387z" fill="#3b3b3b"/></svg><svg height="14.01" viewBox="0 0 12 15" width="11.078" x="223" y="82"><title>del</title><path d="M10.122 1.65h-1.87V.434A.435.435 0 0 0 7.814 0H7.81a.063.063 0 0 0-.047.016A.061.061 0 0 0 7.73 0H3.27a.428.428 0 0 0-.435.422V1.65H.956A.944.944 0 0 0 0 2.582v1.586h.83v8.895a.931.931 0 0 0 .914.947H9.3a.938.938 0 0 0 .956-.92V4.168h.821V2.605a.944.944 0 0 0-.933-.955h-.023zM3.703.868h3.672v.782H3.703V.868zM9.38 13.063a.068.068 0 0 1-.079.08H1.777a.068.068 0 0 1-.079-.056.067.067 0 0 1 0-.024V4.168H9.38v8.895zm.821-9.763H.877v-.695a.074.074 0 0 1 .08-.087h9.165a.073.073 0 0 1 .08.087v.7V3.3zm-3.07 1.886h.875v7.182H7.13V5.186zm-2.022 0h.876v7.182H5.11V5.186zm-2.02 0h.875v7.182h-.876V5.186z"/></svg><svg height="14" viewBox="0 0 14 15" width="14" x="223" y="101"><title>warning_error</title><path d="M7 8.832a.912.912 0 0 0 .912-.913V3.76a.912.912 0 0 0-1.824 0v4.16A.912.912 0 0 0 7 8.833zm0 .496a.912.912 0 1 0 .645.268A.917.917 0 0 0 7 9.328z" fill="#ff7043"/><path d="M7 0a7 7 0 1 0 7 7 7.008 7.008 0 0 0-7-7zm0 12.905A5.905 5.905 0 1 1 12.905 7 5.912 5.912 0 0 1 7 12.905z" fill="#ff7043"/></svg><svg height="14" viewBox="0 0 14 15" width="14" x="223" y="120"><title>ok</title><path d="M7 0a7 7 0 1 0 7 7 7.008 7.008 0 0 0-7-7zm0 12.905A5.905 5.905 0 1 1 12.905 7 5.912 5.912 0 0 1 7 12.905z" fill="#00c853"/><path d="M10.911 4.969l-.89-.89a.27.27 0 0 0-.382 0l-3.71 3.709L4.351 6.21a.27.27 0 0 0-.381 0l-.89.89a.27.27 0 0 0 0 .382l2.658 2.66a.27.27 0 0 0 .382 0l4.791-4.792a.27.27 0 0 0 0-.381" fill="#00c853"/></svg><svg height="14" viewBox="0 0 15 15" width="14" x="223" y="139"><title>world</title><path fill="none" d="M0 0h14v14H0z"/><path d="M11.95 2.05a7 7 0 1 1-9.9 0 7 7 0 0 1 9.9 0m-.619 9.281a6.082 6.082 0 0 0 1.672-3.104c-.184.27-.36.371-.47-.235-.112-.99-1.021-.358-1.593-.71-.601.406-1.954-.788-1.724.559.355.607 1.914-.813 1.137.472-.496.897-1.814 2.884-1.642 3.913.022 1.5-1.533.313-2.069-.184-.36-.997-.123-2.74-1.065-3.228-1.023-.045-1.9-.137-2.297-1.28A1.86 1.86 0 0 1 4.41 5.31c1.284-.807 1.742.944 2.945.976.374-.39 1.392-.515 1.477-.953-.79-.14 1.002-.664-.076-.963a.726.726 0 0 0-.66 1.08c-1.153.268-1.19-1.667-2.297-1.056-.028.965-1.807.313-.615.117.41-.18-.668-.698-.086-.603.286-.016 1.248-.353.988-.58.536-.333.987.797 1.511-.026.379-.632-.159-.75-.633-.428-.268-.3.472-.948 1.125-1.227a1.3 1.3 0 0 1 .585-.13c.328.38.937.446.969-.046a6.14 6.14 0 0 0-6.298.612c.283.13.443.29.171.497a2.032 2.032 0 0 1-1.821 1.355A6.058 6.058 0 0 0 .936 6.13c.63.208.776.621.64.76A2.073 2.073 0 0 0 .957 8a6.126 6.126 0 0 0 10.375 3.33" fill="#3b3b3b"/></svg><svg height="14" viewBox="0 0 14 14" width="14" x="223" y="158"><title>question_hover</title><path fill="none" d="M0 0h14v14H0z"/><path d="M7 0a7 7 0 1 0 7 7 7 7 0 0 0-7-7m0 12.727A5.727 5.727 0 1 1 12.727 7 5.734 5.734 0 0 1 7 12.727" fill="#50c0d8"/><path d="M7 9.758a.848.848 0 1 0 .848.848A.85.85 0 0 0 7 9.758m0-7.213A2.337 2.337 0 0 0 4.666 4.88a.636.636 0 1 0 1.272 0A1.062 1.062 0 1 1 7 5.94a.636.636 0 0 0-.636.637v1.27a.636.636 0 0 0 1.272 0v-.723A2.334 2.334 0 0 0 7 2.545" fill="#50c0d8"/></svg><svg height="14" viewBox="0 0 14 14" width="14" x="223" y="177"><title>add_14-14</title><path d="M7 0a7 7 0 1 0 7 7 7 7 0 0 0-7-7zm0 12.353a5.492 5.492 0 0 1-5.456-5.456A5.404 5.404 0 0 1 7 1.544 5.492 5.492 0 0 1 12.456 7 5.404 5.404 0 0 1 7 12.353z" fill="#2ec1d9"/><path d="M9.059 6.176H7.824V4.838a.812.812 0 0 0-.8-.823H7a.73.73 0 0 0-.72.823v1.338H4.94a.704.704 0 0 0-.72.687v.034a.796.796 0 0 0 .72.824h1.34v1.235a.812.812 0 0 0 .8.823h.024a.73.73 0 0 0 .72-.823V7.72H9.06a.812.812 0 0 0 .823-.8v-.024a.73.73 0 0 0-.823-.72z" fill="#2ec1d9"/></svg><svg height="14" viewBox="0 0 14 14" width="14" x="223" y="196"><title>del_circle_14-14</title><path d="M7 0a7 7 0 1 0 7 7 7 7 0 0 0-7-7zm0 12.353a5.492 5.492 0 0 1-5.456-5.456A5.492 5.492 0 0 1 7 1.441a5.492 5.492 0 0 1 5.456 5.456A5.492 5.492 0 0 1 7 12.353z" fill="#474747"/><path d="M9.059 6.176H4.94a.812.812 0 0 0-.823.8V7a.758.758 0 0 0 .823.824h4.12a.824.824 0 1 0 0-1.648z" fill="#474747"/></svg><svg height="14" viewBox="0 0 14 14" width="14" x="5" y="217"><title>add_14-14_hover</title><path d="M7 0a7 7 0 1 0 7 7 7 7 0 0 0-7-7zm2.059 7.72H7.824v1.236a.812.812 0 0 1-.8.823H7a.73.73 0 0 1-.72-.823V7.618H4.94a.812.812 0 0 1-.823-.8v-.024a.758.758 0 0 1 .823-.823h1.34V4.838a.812.812 0 0 1 .8-.823h.024a.758.758 0 0 1 .823.823v1.338H9.06a.812.812 0 0 1 .823.8V7a.73.73 0 0 1-.823.72z" fill="#2ec1d9"/></svg><svg height="14" viewBox="0 0 14 14" width="14" x="24" y="217"><title>next_circle_14-14</title><circle cx="7" cy="7" r="6.5" fill="none" stroke="#43c9e0"/><path d="M9.42 7.42l-3.77 3.772a.614.614 0 0 1-.87-.869l3.338-3.337L4.78 3.649a.614.614 0 1 1 .869-.869L9.42 6.552a.614.614 0 0 1 0 .868" fill="#43c9e0"/></svg><svg height="14" viewBox="0 0 14 14" width="14" x="43" y="217"><title>next_circle_14-14_gray</title><circle cx="7" cy="7" r="6.5" fill="none" stroke="#888988"/><path d="M9.42 7.42l-3.77 3.772a.614.614 0 0 1-.87-.869l3.338-3.337L4.78 3.649a.614.614 0 1 1 .869-.869L9.42 6.552a.614.614 0 0 1 0 .868" fill="#888988"/></svg><svg height="14" viewBox="0 0 14 14" width="14" x="62" y="217"><title>next_circle_14-14_hover</title><circle cx="7" cy="7" r="7" fill="#2dc3dc"/><path d="M9.315 7.415l-3.69 3.69a.601.601 0 1 1-.85-.85L8.04 6.99 4.776 3.726a.6.6 0 1 1 .85-.85l3.69 3.69a.6.6 0 0 1 0 .85" fill="#fff"/></svg><svg height="14" viewBox="0 0 14 14" width="14" x="81" y="217"><title>del_circle_14-14_hover</title><path d="M7 0a7 7 0 1 0 7 7 7 7 0 0 0-7-7zm2.059 7.72H4.94a.812.812 0 0 1-.823-.8v-.023a.758.758 0 0 1 .823-.823h4.12a.824.824 0 1 1 0 1.647z" fill="#474747"/></svg><svg height="14" viewBox="0 0 14 14" width="14" x="100" y="217"><title>question</title><path fill="none" d="M0 0h14v14H0z"/><path d="M7 0a7 7 0 1 0 7 7 7 7 0 0 0-7-7m0 12.727A5.727 5.727 0 1 1 12.727 7 5.734 5.734 0 0 1 7 12.727" fill="#757575"/><path d="M7 9.758a.848.848 0 1 0 .848.848A.85.85 0 0 0 7 9.758m0-7.213A2.337 2.337 0 0 0 4.666 4.88a.636.636 0 1 0 1.272 0A1.062 1.062 0 1 1 7 5.94a.636.636 0 0 0-.636.637v1.27a.636.636 0 0 0 1.272 0v-.723A2.334 2.334 0 0 0 7 2.545" fill="#757575"/></svg><svg height="13.879" viewBox="0 0 14 14" width="14" x="115" y="192"><title>user</title><path fill="none" d="M0 0h14v13.879H0z"/><path d="M6.99 7.337a3.433 3.433 0 0 0 3.133-3.669C10.123.858 8.72 0 6.99 0S3.855.859 3.855 3.668a3.433 3.433 0 0 0 3.134 3.669m6.921 5.399l-1.581-3.562a.792.792 0 0 0-.358-.38L9.517 7.516a.158.158 0 0 0-.168.014 3.871 3.871 0 0 1-4.72 0 .158.158 0 0 0-.168-.014L2.007 8.794a.792.792 0 0 0-.357.38L.068 12.736a.79.79 0 0 0 .723 1.111h12.396a.79.79 0 0 0 .723-1.11" fill="#3b3b3b"/></svg><svg height="14" viewBox="0 0 13 14" width="12" x="119" y="217"><title>bug_hover</title><path fill="none" d="M0 0h12v14H0z"/><path d="M11.574 8.264H9.572V6.08l1.6-1.644a.444.444 0 0 0 0-.615.416.416 0 0 0-.588-.012l-.011.012-1.534 1.575a3.134 3.134 0 0 0-2.137-2.511L8.954.776a.444.444 0 0 0 0-.615.416.416 0 0 0-.588-.012l-.011.012L6.01 2.568 3.688.181a.416.416 0 0 0-.589-.01l-.01.01a.444.444 0 0 0 0 .616L5.12 2.885a3.134 3.134 0 0 0-2.137 2.511L1.451 3.821a.416.416 0 0 0-.588-.012l-.012.012a.444.444 0 0 0 0 .616l1.6 1.643v2.184H.424a.435.435 0 0 0 0 .87H2.45a3.705 3.705 0 0 0 .592 2.005l-1.994 2.048a.444.444 0 0 0 0 .616.416.416 0 0 0 .588.011l.011-.011 1.945-1.999a3.483 3.483 0 0 0 4.824.013l1.933 1.986a.416.416 0 0 0 .588.011l.011-.011a.444.444 0 0 0 0-.616L8.97 11.154a3.706 3.706 0 0 0 .6-2.02h2.003a.435.435 0 0 0 0-.87M6.011 3.62A2.24 2.24 0 0 1 8.19 5.464H3.833A2.24 2.24 0 0 1 6.01 3.62M3.298 9.123V6.335h2.29v5.54a2.77 2.77 0 0 1-2.29-2.753m3.137 2.754V6.335h2.29v2.787a2.77 2.77 0 0 1-2.29 2.754" fill="#43c9e0"/></svg><svg height="14" viewBox="0 0 13 14" width="12" x="137" y="217"><title>bug</title><path fill="none" d="M0 0h12v14H0z"/><path d="M11.574 8.264H9.572V6.08l1.6-1.644a.444.444 0 0 0 0-.615.416.416 0 0 0-.588-.012l-.011.012-1.534 1.575a3.134 3.134 0 0 0-2.137-2.511L8.954.776a.444.444 0 0 0 0-.615.416.416 0 0 0-.588-.012l-.011.012L6.01 2.568 3.688.181a.416.416 0 0 0-.589-.01l-.01.01a.444.444 0 0 0 0 .616L5.12 2.885a3.134 3.134 0 0 0-2.137 2.511L1.451 3.821a.416.416 0 0 0-.588-.012l-.012.012a.444.444 0 0 0 0 .616l1.6 1.643v2.184H.424a.435.435 0 0 0 0 .87H2.45a3.705 3.705 0 0 0 .592 2.005l-1.994 2.048a.444.444 0 0 0 0 .616.416.416 0 0 0 .588.011l.011-.011 1.945-1.999a3.483 3.483 0 0 0 4.824.013l1.933 1.986a.416.416 0 0 0 .588.011l.011-.011a.444.444 0 0 0 0-.616L8.97 11.154a3.706 3.706 0 0 0 .6-2.02h2.003a.435.435 0 0 0 0-.87M6.011 3.62A2.24 2.24 0 0 1 8.19 5.464H3.833A2.24 2.24 0 0 1 6.01 3.62M3.298 9.123V6.335h2.29v5.54a2.77 2.77 0 0 1-2.29-2.753m3.137 2.754V6.335h2.29v2.787a2.77 2.77 0 0 1-2.29 2.754" fill="#3b3b3b"/></svg><svg height="13" viewBox="0 0 8 13" width="7.041" x="158" y="128"><title>sort</title><path d="M6.992 8.196a.351.351 0 0 1 0 .358l-3.156 4.267a.368.368 0 0 1-.631 0L.049 8.554a.353.353 0 0 1 0-.358.366.366 0 0 1 .315-.179h6.312a.367.367 0 0 1 .316.18zM.05 4.804a.351.351 0 0 1 0-.358L3.204.179a.368.368 0 0 1 .631 0l3.156 4.267a.353.353 0 0 1 0 .358.366.366 0 0 1-.315.179H.365a.367.367 0 0 1-.316-.18z" fill="#3b3b3b"/></svg><svg height="11.248" viewBox="0 0 13 12" width="12.834" x="134" y="192"><title>Coin stack</title><path d="M3.729 6.523a8.1 8.1 0 0 0 1.039-.066V2.891a8.122 8.122 0 0 0-1.039-.066C1.669 2.825 0 3.572 0 4.493v.362c0 .925 1.669 1.668 3.729 1.668zm0 1.862a8.122 8.122 0 0 0 1.039-.066V7.274a8.1 8.1 0 0 1-1.039.066c-1.8 0-3.3-.569-3.651-1.326A.808.808 0 0 0 0 6.356v.362c0 .92 1.669 1.662 3.729 1.662v.005zm1.039.832v-.081a8.121 8.121 0 0 1-1.039.066c-1.8 0-3.3-.569-3.651-1.326A.81.81 0 0 0 0 8.218v.362c0 .921 1.669 1.668 3.729 1.668a8.008 8.008 0 0 0 1.178-.085 1.3 1.3 0 0 1-.139-.583v-.363zM9.105 0C7.046 0 5.376.747 5.376 1.668v.362c0 .921 1.67 1.668 3.729 1.668s3.729-.747 3.729-1.668v-.362C12.834.747 11.16 0 9.105 0zm0 4.515c-1.8 0-3.3-.569-3.65-1.326a.794.794 0 0 0-.079.342v.362c0 .921 1.67 1.668 3.729 1.668s3.729-.747 3.729-1.668V3.53a.809.809 0 0 0-.079-.342c-.352.758-1.853 1.327-3.65 1.327zm0 1.862c-1.8 0-3.3-.569-3.65-1.327a.8.8 0 0 0-.079.342v.362c0 .921 1.67 1.668 3.729 1.668s3.729-.747 3.729-1.668v-.361a.81.81 0 0 0-.079-.342c-.352.757-1.853 1.329-3.65 1.329v-.003zm0 1.962c-1.8 0-3.3-.569-3.65-1.326a.8.8 0 0 0-.079.342v.362c0 .921 1.67 1.668 3.729 1.668s3.729-.747 3.729-1.668v-.362a.81.81 0 0 0-.079-.342c-.352.758-1.853 1.327-3.65 1.327v-.001zm0 1.862c-1.8 0-3.3-.569-3.65-1.326a.794.794 0 0 0-.079.342v.363c0 .921 1.67 1.668 3.729 1.668s3.729-.747 3.729-1.668v-.363a.81.81 0 0 0-.074-.337c-.357.753-1.858 1.322-3.655 1.322v-.001z" fill="#fff"/></svg><svg height="11.248" viewBox="0 0 13 12" width="12.834" x="151" y="192"><title>Coin stack</title><path d="M3.729 6.523a8.1 8.1 0 0 0 1.039-.066V2.891a8.122 8.122 0 0 0-1.039-.066C1.669 2.825 0 3.572 0 4.493v.362c0 .925 1.669 1.668 3.729 1.668zm0 1.862a8.122 8.122 0 0 0 1.039-.066V7.274a8.1 8.1 0 0 1-1.039.066c-1.8 0-3.3-.569-3.651-1.326A.808.808 0 0 0 0 6.356v.362c0 .92 1.669 1.662 3.729 1.662v.005zm1.039.832v-.081a8.121 8.121 0 0 1-1.039.066c-1.8 0-3.3-.569-3.651-1.326A.81.81 0 0 0 0 8.218v.362c0 .921 1.669 1.668 3.729 1.668a8.008 8.008 0 0 0 1.178-.085 1.3 1.3 0 0 1-.139-.583v-.363zM9.105 0C7.046 0 5.376.747 5.376 1.668v.362c0 .921 1.67 1.668 3.729 1.668s3.729-.747 3.729-1.668v-.362C12.834.747 11.16 0 9.105 0zm0 4.515c-1.8 0-3.3-.569-3.65-1.326a.794.794 0 0 0-.079.342v.362c0 .921 1.67 1.668 3.729 1.668s3.729-.747 3.729-1.668V3.53a.809.809 0 0 0-.079-.342c-.352.758-1.853 1.327-3.65 1.327zm0 1.862c-1.8 0-3.3-.569-3.65-1.327a.8.8 0 0 0-.079.342v.362c0 .921 1.67 1.668 3.729 1.668s3.729-.747 3.729-1.668v-.361a.81.81 0 0 0-.079-.342c-.352.757-1.853 1.329-3.65 1.329v-.003zm0 1.962c-1.8 0-3.3-.569-3.65-1.326a.8.8 0 0 0-.079.342v.362c0 .921 1.67 1.668 3.729 1.668s3.729-.747 3.729-1.668v-.362a.81.81 0 0 0-.079-.342c-.352.758-1.853 1.327-3.65 1.327v-.001zm0 1.862c-1.8 0-3.3-.569-3.65-1.326a.794.794 0 0 0-.079.342v.363c0 .921 1.67 1.668 3.729 1.668s3.729-.747 3.729-1.668v-.363a.81.81 0 0 0-.074-.337c-.357.753-1.858 1.322-3.655 1.322v-.001z" fill="#888988"/></svg><svg height="11.248" viewBox="0 0 13 12" width="12.834" x="169" y="192"><title>Coin_stack_blue</title><path d="M3.729 6.523a8.1 8.1 0 0 0 1.039-.066V2.891a8.122 8.122 0 0 0-1.039-.066C1.669 2.825 0 3.572 0 4.493v.362c0 .925 1.669 1.668 3.729 1.668zm0 1.862a8.122 8.122 0 0 0 1.039-.066V7.274a8.1 8.1 0 0 1-1.039.066c-1.8 0-3.3-.569-3.651-1.326A.808.808 0 0 0 0 6.356v.362c0 .92 1.669 1.662 3.729 1.662v.005zm1.039.832v-.081a8.121 8.121 0 0 1-1.039.066c-1.8 0-3.3-.569-3.651-1.326A.81.81 0 0 0 0 8.218v.362c0 .921 1.669 1.668 3.729 1.668a8.008 8.008 0 0 0 1.178-.085 1.3 1.3 0 0 1-.139-.583v-.363zM9.105 0C7.046 0 5.376.747 5.376 1.668v.362c0 .921 1.67 1.668 3.729 1.668s3.729-.747 3.729-1.668v-.362C12.834.747 11.16 0 9.105 0zm0 4.515c-1.8 0-3.3-.569-3.65-1.326a.794.794 0 0 0-.079.342v.362c0 .921 1.67 1.668 3.729 1.668s3.729-.747 3.729-1.668V3.53a.809.809 0 0 0-.079-.342c-.352.758-1.853 1.327-3.65 1.327zm0 1.862c-1.8 0-3.3-.569-3.65-1.327a.8.8 0 0 0-.079.342v.362c0 .921 1.67 1.668 3.729 1.668s3.729-.747 3.729-1.668v-.361a.81.81 0 0 0-.079-.342c-.352.757-1.853 1.329-3.65 1.329v-.003zm0 1.962c-1.8 0-3.3-.569-3.65-1.326a.8.8 0 0 0-.079.342v.362c0 .921 1.67 1.668 3.729 1.668s3.729-.747 3.729-1.668v-.362a.81.81 0 0 0-.079-.342c-.352.758-1.853 1.327-3.65 1.327v-.001zm0 1.862c-1.8 0-3.3-.569-3.65-1.326a.794.794 0 0 0-.079.342v.363c0 .921 1.67 1.668 3.729 1.668s3.729-.747 3.729-1.668v-.363a.81.81 0 0 0-.074-.337c-.357.753-1.858 1.322-3.655 1.322v-.001z" fill="#2dc3dc"/></svg><svg height="10.753" viewBox="0 0 13 11" width="12.815" x="187" y="192"><title>partners</title><path d="M7.735 1.859a2.317 2.317 0 0 1 1.084 1.722 1.868 1.868 0 1 0-1.084-1.722zM6.5 5.689a1.87 1.87 0 1 0-1.88-1.87 1.87 1.87 0 0 0 1.88 1.87zm.8.127H5.705A2.4 2.4 0 0 0 3.299 8.21v1.972l.135.042a11 11 0 0 0 3.271.525 6.741 6.741 0 0 0 2.857-.534l.126-.063h.013V8.211A2.4 2.4 0 0 0 7.3 5.816zm3.109-1.931H8.827a2.3 2.3 0 0 1-.715 1.605 2.847 2.847 0 0 1 2.042 2.723v.6a6.5 6.5 0 0 0 2.522-.527l.126-.063h.013V6.279a2.4 2.4 0 0 0-2.405-2.394h-.001zm-7.2-.127a1.874 1.874 0 0 0 1-.289 2.312 2.312 0 0 1 .874-1.476v-.105a1.879 1.879 0 1 0-1.888 1.87h.014zm1.687 1.733a2.3 2.3 0 0 1-.714-1.6c-.059 0-.117-.009-.177-.009H2.411A2.4 2.4 0 0 0 0 6.271V8.22l.005.03.134.042a11.323 11.323 0 0 0 2.71.507v-.585a2.848 2.848 0 0 1 2.045-2.723h.002z" fill="#888988"/></svg><svg height="10.753" viewBox="0 0 13 11" width="12.815" x="205" y="192"><title>partners</title><path d="M7.735 1.859a2.317 2.317 0 0 1 1.084 1.722 1.868 1.868 0 1 0-1.084-1.722zM6.5 5.689a1.87 1.87 0 1 0-1.88-1.87 1.87 1.87 0 0 0 1.88 1.87zm.8.127H5.705A2.4 2.4 0 0 0 3.299 8.21v1.972l.135.042a11 11 0 0 0 3.271.525 6.741 6.741 0 0 0 2.857-.534l.126-.063h.013V8.211A2.4 2.4 0 0 0 7.3 5.816zm3.109-1.931H8.827a2.3 2.3 0 0 1-.715 1.605 2.847 2.847 0 0 1 2.042 2.723v.6a6.5 6.5 0 0 0 2.522-.527l.126-.063h.013V6.279a2.4 2.4 0 0 0-2.405-2.394h-.001zm-7.2-.127a1.874 1.874 0 0 0 1-.289 2.312 2.312 0 0 1 .874-1.476v-.105a1.879 1.879 0 1 0-1.888 1.87h.014zm1.687 1.733a2.3 2.3 0 0 1-.714-1.6c-.059 0-.117-.009-.177-.009H2.411A2.4 2.4 0 0 0 0 6.271V8.22l.005.03.134.042a11.323 11.323 0 0 0 2.71.507v-.585a2.848 2.848 0 0 1 2.045-2.723h.002z" fill="#fff"/></svg><svg height="10.753" viewBox="0 0 13 11" width="12.815" x="154" y="217"><title>partners_blue</title><path d="M7.735 1.859a2.317 2.317 0 0 1 1.084 1.722 1.868 1.868 0 1 0-1.084-1.722zM6.5 5.689a1.87 1.87 0 1 0-.01 0h.01zm.8.127H5.705A2.4 2.4 0 0 0 3.299 8.21v1.972l.135.042a11 11 0 0 0 3.271.525 6.741 6.741 0 0 0 2.857-.534l.126-.063h.013V8.211A2.4 2.4 0 0 0 7.3 5.816zm3.109-1.931H8.827a2.3 2.3 0 0 1-.715 1.605 2.847 2.847 0 0 1 2.042 2.723v.6a6.5 6.5 0 0 0 2.522-.527l.126-.063h.013V6.279a2.4 2.4 0 0 0-2.405-2.394h-.001zm-7.2-.127a1.874 1.874 0 0 0 1-.289 2.312 2.312 0 0 1 .874-1.476v-.105a1.879 1.879 0 1 0-1.888 1.87h.014zm1.687 1.733a2.3 2.3 0 0 1-.714-1.6c-.059 0-.117-.009-.177-.009H2.411A2.4 2.4 0 0 0 0 6.271V8.22l.005.03.134.042a11.323 11.323 0 0 0 2.71.507v-.585a2.848 2.848 0 0 1 2.045-2.723h.002z" fill="#2dc3dc"/></svg><svg height="12.012" viewBox="0 0 13 13" width="12.012" x="244" y="5"><title>remove_button_hover</title><path d="M6.006 0a6.006 6.006 0 1 0 6.006 6.006V6a6 6 0 0 0-6-6h-.006zm2.582 7.631l-.956.955a21.857 21.857 0 0 0-1.627-1.623 22.398 22.398 0 0 0-1.624 1.623l-.957-.955A18.692 18.692 0 0 0 5.048 6a18.461 18.461 0 0 0-1.625-1.626l.957-.957s1.526 1.624 1.624 1.624 1.627-1.624 1.627-1.624l.956.957A22.06 22.06 0 0 0 6.961 6a22.664 22.664 0 0 0 1.626 1.626z" fill="#2dc3dc"/></svg><svg height="12.012" viewBox="0 0 13 13" width="12.012" x="244" y="23"><title>remove_button</title><path d="M6.006 0a6.006 6.006 0 1 0 6.006 6.006V6a6 6 0 0 0-6-6h-.006zm2.582 7.631l-.956.955a21.857 21.857 0 0 0-1.627-1.623 22.398 22.398 0 0 0-1.624 1.623l-.957-.955A18.692 18.692 0 0 0 5.048 6a18.461 18.461 0 0 0-1.625-1.626l.957-.957s1.526 1.624 1.624 1.624 1.627-1.624 1.627-1.624l.956.957A22.06 22.06 0 0 0 6.961 6a22.664 22.664 0 0 0 1.626 1.626z" fill="#a5a5a5"/></svg><svg height="12" viewBox="0 0 12 12" width="12" x="244" y="40"><title>add_12-12_hover</title><path d="M6 0a6 6 0 1 0 6 6 6.006 6.006 0 0 0-6-6zm1.765 6.618h-1.06v1.058A.696.696 0 0 1 6 8.382a.625.625 0 0 1-.618-.706V6.53H4.235a.696.696 0 0 1-.706-.705.65.65 0 0 1 .706-.706h1.147v-.97a.696.696 0 0 1 .706-.707.65.65 0 0 1 .706.706v1.147h.97A.696.696 0 0 1 8.472 6a.625.625 0 0 1-.706.618z" fill="#2ec1d9"/></svg><svg height="12" viewBox="0 0 12 12" width="12" x="244" y="57"><title>clock</title><path d="M6 0a6 6 0 1 0 6 6 6 6 0 0 0-6-6zm0 10.722a4.723 4.723 0 1 1 4.72-4.726v.003A4.728 4.728 0 0 1 6 10.723v-.001zm3.13-4.908h-2.7V2.573a.5.5 0 0 0-.99 0v3.736a.5.5 0 0 0 .5.494h3.19a.494.494 0 0 0 0-.988v-.001z" fill="#515151"/></svg><svg height="12" viewBox="0 0 12 12" width="12" x="244" y="74"><title>del_circle_12-12</title><path d="M6 0a6 6 0 1 0 6 6 6.006 6.006 0 0 0-6-6zm0 10.588a4.707 4.707 0 0 1-4.676-4.676A4.707 4.707 0 0 1 6 1.235a4.707 4.707 0 0 1 4.676 4.677A4.707 4.707 0 0 1 6 10.588z" fill="#474747"/><path d="M7.765 5.294h-3.53A.696.696 0 0 0 3.53 6a.65.65 0 0 0 .706.706h3.53a.706.706 0 1 0 0-1.412z" fill="#474747"/></svg><svg height="12" viewBox="0 0 12 12" width="12" x="244" y="91"><title>del_circle_12-12_hover</title><path d="M6 0a6 6 0 1 0 6 6 6.006 6.006 0 0 0-6-6zm1.765 6.618h-3.53a.696.696 0 0 1-.706-.706.65.65 0 0 1 .706-.706h3.53a.706.706 0 1 1 0 1.412z" fill="#474747"/></svg><svg height="12" viewBox="0 0 12 12" width="12" x="244" y="108"><title>add</title><path d="M7.875 5.25H6.75V4.125a.75.75 0 0 0-1.5 0V5.25H4.125a.75.75 0 0 0 0 1.5H5.25v1.125a.75.75 0 0 0 1.5 0V6.75h1.125a.75.75 0 0 0 0-1.5zM6 0a6 6 0 1 0 6 6 6 6 0 0 0-6-6zm0 10.875A4.875 4.875 0 1 1 10.875 6 4.881 4.881 0 0 1 6 10.875z" fill="#41bdc8"/></svg><svg height="9.976" viewBox="0 0 12 10" width="11.613" x="244" y="125"><title>Done_Tick_hover</title><path d="M11.177.57l-.311-.267a1.254 1.254 0 0 0-1.748.11l-5.2 5.765-1.571-1.352a1.255 1.255 0 0 0-1.748.109l-.275.3a1.252 1.252 0 0 0 .088 1.768l.002.002 2.88 2.634a1.257 1.257 0 0 0 1.776-.064l.033-.036 6.213-7.211a1.25 1.25 0 0 0-.14-1.758z" fill="#fff"/></svg><svg height="9.976" viewBox="0 0 12 10" width="11.613" x="244" y="139"><title>Done_Tick</title><path d="M11.177.57l-.311-.267a1.254 1.254 0 0 0-1.748.11l-5.2 5.765-1.571-1.352a1.255 1.255 0 0 0-1.748.109l-.275.3a1.252 1.252 0 0 0 .088 1.768l.002.002 2.88 2.634a1.257 1.257 0 0 0 1.776-.064l.033-.036 6.213-7.211a1.25 1.25 0 0 0-.14-1.758z" fill="#41bdc8"/></svg><svg height="10.731" viewBox="0 0 10 11" width="9.555" x="244" y="154"><title>stat_blue</title><path d="M2.349 5.372H.288A.288.288 0 0 0 0 5.66v4.783a.288.288 0 0 0 .288.288h2.061a.288.288 0 0 0 .284-.288V5.66a.288.288 0 0 0-.284-.288zM5.808 0H3.747a.288.288 0 0 0-.288.288v10.155a.288.288 0 0 0 .288.288h2.061a.288.288 0 0 0 .288-.288V.288A.288.288 0 0 0 5.808 0zm3.459 3.321H7.206a.288.288 0 0 0-.288.288v6.834a.288.288 0 0 0 .288.288h2.061a.288.288 0 0 0 .288-.288V3.609a.288.288 0 0 0-.288-.288z" fill="#2dc3dc"/></svg><svg height="10.731" viewBox="0 0 10 11" width="9.555" x="244" y="170"><title>stat</title><path d="M2.349 5.372H.288A.288.288 0 0 0 0 5.66v4.783a.288.288 0 0 0 .288.288h2.061a.288.288 0 0 0 .284-.288V5.66a.288.288 0 0 0-.284-.288zM5.808 0H3.747a.288.288 0 0 0-.288.288v10.155a.288.288 0 0 0 .288.288h2.061a.288.288 0 0 0 .288-.288V.288A.288.288 0 0 0 5.808 0zm3.459 3.321H7.206a.288.288 0 0 0-.288.288v6.834a.288.288 0 0 0 .288.288h2.061a.288.288 0 0 0 .288-.288V3.609a.288.288 0 0 0-.288-.288z" fill="#888988"/></svg><svg height="10.731" viewBox="0 0 10 11" width="9.555" x="244" y="186"><title>stat</title><path d="M2.349 5.372H.288A.288.288 0 0 0 0 5.66v4.783a.288.288 0 0 0 .288.288h2.061a.288.288 0 0 0 .284-.288V5.66a.288.288 0 0 0-.284-.288zM5.808 0H3.747a.288.288 0 0 0-.288.288v10.155a.288.288 0 0 0 .288.288h2.061a.288.288 0 0 0 .288-.288V.288A.288.288 0 0 0 5.808 0zm3.459 3.321H7.206a.288.288 0 0 0-.288.288v6.834a.288.288 0 0 0 .288.288h2.061a.288.288 0 0 0 .288-.288V3.609a.288.288 0 0 0-.288-.288z" fill="#fff"/></svg><svg height="10.724" viewBox="0 0 11 11" width="10.717" x="244" y="202"><title>offer_blue</title><path d="M6.873 10.462a.9.9 0 0 1-1.268 0L.662 5.844A2.043 2.043 0 0 1 .034 4.72c-.064-1.019-.02-2.97.012-4a.735.735 0 0 1 .708-.7c1.327-.03 4.138-.063 4.4.2l5.444 4.906a1.386 1.386 0 0 1-.32 1.58zm-4.33-8.95a.757.757 0 1 0-.004 1.07l.004-.003a.753.753 0 0 0 .002-1.065z" fill="#2dc3dc"/></svg><svg height="10.724" viewBox="0 0 11 11" width="10.717" x="244" y="217"><title>offer</title><path d="M6.874 10.462a.9.9 0 0 1-1.268 0L.662 5.844a2.043 2.043 0 0 1-.63-1.124C-.03 3.701.015 1.75.046.72a.735.735 0 0 1 .708-.7c1.327-.03 4.138-.063 4.4.2l5.444 4.906a1.386 1.386 0 0 1-.32 1.58zm-4.331-8.95a.757.757 0 1 0-.004 1.07l.004-.003a.753.753 0 0 0 .002-1.065z" fill="#888988"/></svg><svg height="10.724" viewBox="0 0 11 11" width="10.717" x="171" y="217"><title>offer</title><path d="M6.874 10.462a.9.9 0 0 1-1.268 0L.662 5.844a2.043 2.043 0 0 1-.63-1.124C-.03 3.701.015 1.75.046.72a.735.735 0 0 1 .708-.7c1.327-.03 4.138-.063 4.4.2l5.444 4.906a1.386 1.386 0 0 1-.32 1.58zm-4.331-8.95a.757.757 0 1 0-.004 1.07l.004-.003a.753.753 0 0 0 .002-1.065z" fill="#fff"/></svg><svg height="10.716" viewBox="0 0 11 11" width="10.699" x="187" y="217"><title>settings</title><path d="M10.667 4.759a.348.348 0 0 0-.344-.264 1.184 1.184 0 0 1-.809-2.06.3.3 0 0 0 .033-.4 5.32 5.32 0 0 0-.848-.857.3.3 0 0 0-.407.033 1.234 1.234 0 0 1-1.336.3A1.192 1.192 0 0 1 6.233.347a.3.3 0 0 0-.262-.313 5.353 5.353 0 0 0-1.205 0 .3.3 0 0 0-.265.307 1.192 1.192 0 0 1-.733 1.143 1.235 1.235 0 0 1-1.325-.3.3.3 0 0 0-.4-.034 5.299 5.299 0 0 0-.866.857.3.3 0 0 0 .032.407 1.189 1.189 0 0 1 .3 1.337 1.238 1.238 0 0 1-1.165.724.291.291 0 0 0-.309.263 5.342 5.342 0 0 0 0 1.219.353.353 0 0 0 .351.264 1.174 1.174 0 0 1 1.1.734 1.193 1.193 0 0 1-.3 1.325.3.3 0 0 0-.033.4A5.316 5.316 0 0 0 2 9.538a.3.3 0 0 0 .408-.032 1.23 1.23 0 0 1 1.334-.3 1.19 1.19 0 0 1 .725 1.163.3.3 0 0 0 .262.313 5.327 5.327 0 0 0 1.2 0 .3.3 0 0 0 .265-.307 1.192 1.192 0 0 1 .732-1.143 1.234 1.234 0 0 1 1.326.3.3.3 0 0 0 .4.034 5.325 5.325 0 0 0 .866-.857.3.3 0 0 0-.032-.407 1.184 1.184 0 0 1 .795-2.064h.067a.3.3 0 0 0 .313-.263 5.34 5.34 0 0 0 .006-1.216zM5.356 7.153a1.788 1.788 0 1 1 1.786-1.79v.002a1.789 1.789 0 0 1-1.786 1.788z" fill="#fff"/></svg><svg height="10.716" viewBox="0 0 11 11" width="10.699" x="203" y="217"><title>settings</title><path d="M10.667 4.759a.348.348 0 0 0-.344-.264 1.184 1.184 0 0 1-.809-2.06.3.3 0 0 0 .033-.4 5.32 5.32 0 0 0-.848-.857.3.3 0 0 0-.407.033 1.234 1.234 0 0 1-1.336.3A1.192 1.192 0 0 1 6.233.347a.3.3 0 0 0-.262-.313 5.353 5.353 0 0 0-1.205 0 .3.3 0 0 0-.265.307 1.192 1.192 0 0 1-.733 1.143 1.235 1.235 0 0 1-1.325-.3.3.3 0 0 0-.4-.034 5.299 5.299 0 0 0-.866.857.3.3 0 0 0 .032.407 1.189 1.189 0 0 1 .3 1.337 1.238 1.238 0 0 1-1.165.724.291.291 0 0 0-.309.263 5.342 5.342 0 0 0 0 1.219.353.353 0 0 0 .351.264 1.174 1.174 0 0 1 1.1.734 1.193 1.193 0 0 1-.3 1.325.3.3 0 0 0-.033.4A5.316 5.316 0 0 0 2 9.538a.3.3 0 0 0 .408-.032 1.23 1.23 0 0 1 1.334-.3 1.19 1.19 0 0 1 .725 1.163.3.3 0 0 0 .262.313 5.327 5.327 0 0 0 1.2 0 .3.3 0 0 0 .265-.307 1.192 1.192 0 0 1 .732-1.143 1.234 1.234 0 0 1 1.326.3.3.3 0 0 0 .4.034 5.325 5.325 0 0 0 .866-.857.3.3 0 0 0-.032-.407 1.184 1.184 0 0 1 .795-2.064h.067a.3.3 0 0 0 .313-.263 5.34 5.34 0 0 0 .006-1.216zM5.356 7.153a1.788 1.788 0 1 1 1.786-1.79v.002a1.789 1.789 0 0 1-1.786 1.788z" fill="#888988"/></svg><svg height="10.716" viewBox="0 0 11 11" width="10.699" x="218" y="217"><title>settings_blue</title><path d="M10.667 4.759a.348.348 0 0 0-.344-.264 1.184 1.184 0 0 1-.81-2.06.3.3 0 0 0 .034-.4 5.32 5.32 0 0 0-.848-.857.3.3 0 0 0-.407.033 1.234 1.234 0 0 1-1.336.3A1.192 1.192 0 0 1 6.233.347.3.3 0 0 0 5.97.034a5.353 5.353 0 0 0-1.205 0A.3.3 0 0 0 4.5.341a1.192 1.192 0 0 1-.733 1.143 1.235 1.235 0 0 1-1.325-.3.3.3 0 0 0-.4-.034 5.299 5.299 0 0 0-.866.857.3.3 0 0 0 .032.407 1.189 1.189 0 0 1 .3 1.337 1.238 1.238 0 0 1-1.165.724.291.291 0 0 0-.31.263 5.342 5.342 0 0 0 0 1.219.353.353 0 0 0 .352.264 1.174 1.174 0 0 1 1.1.734 1.193 1.193 0 0 1-.3 1.325.3.3 0 0 0-.033.4A5.316 5.316 0 0 0 2 9.538a.3.3 0 0 0 .408-.032 1.23 1.23 0 0 1 1.334-.3 1.19 1.19 0 0 1 .725 1.163.3.3 0 0 0 .262.313 5.327 5.327 0 0 0 1.2 0 .3.3 0 0 0 .265-.307 1.192 1.192 0 0 1 .732-1.143 1.234 1.234 0 0 1 1.326.3.3.3 0 0 0 .4.034 5.325 5.325 0 0 0 .866-.857.3.3 0 0 0-.032-.407 1.184 1.184 0 0 1 .795-2.064h.067a.3.3 0 0 0 .313-.263 5.34 5.34 0 0 0 .006-1.216zM5.356 7.153a1.788 1.788 0 1 1 1.786-1.79v.002a1.789 1.789 0 0 1-1.786 1.788z" fill="#2dc3dc"/></svg><svg height="10.012" viewBox="0 0 11 11" width="10.123" x="5" y="236"><title>Close_Cross_hover</title><path d="M6.776 5.003l2.992-2.958a1.188 1.188 0 0 0 .014-1.68L9.768.35a1.222 1.222 0 0 0-1.714 0L5.062 3.309 2.069.356a1.222 1.222 0 0 0-1.714 0 1.188 1.188 0 0 0-.014 1.68l.014.014 2.992 2.958L.355 7.967a1.188 1.188 0 0 0-.014 1.68l.014.014a1.222 1.222 0 0 0 1.714 0l2.992-2.958 2.988 2.953a1.222 1.222 0 0 0 1.714 0 1.188 1.188 0 0 0 .014-1.68l-.014-.014z" fill="#fff"/></svg><svg height="10.012" viewBox="0 0 11 11" width="10.123" x="21" y="236"><title>Close_Cross</title><path d="M6.776 5.003l2.992-2.958a1.188 1.188 0 0 0 .014-1.68L9.768.35a1.222 1.222 0 0 0-1.714 0L5.062 3.309 2.069.356a1.222 1.222 0 0 0-1.714 0 1.188 1.188 0 0 0-.014 1.68l.014.014 2.992 2.958L.355 7.967a1.188 1.188 0 0 0-.014 1.68l.014.014a1.222 1.222 0 0 0 1.714 0l2.992-2.958 2.988 2.953a1.222 1.222 0 0 0 1.714 0 1.188 1.188 0 0 0 .014-1.68l-.014-.014z" fill="#474747"/></svg><svg height="10" viewBox="0 0 10 10" width="10" x="36" y="236"><title>warning_error_10-10</title><path d="M5 6.308a.652.652 0 0 0 .652-.651V2.686a.652.652 0 0 0-1.304 0v2.97A.652.652 0 0 0 5 6.309zm0 .355a.651.651 0 1 0 .461.191.651.651 0 0 0-.46-.19z" fill="#ff7043"/><path d="M5 0a5 5 0 1 0 5 5 5 5 0 0 0-5-5zm0 9.218A4.218 4.218 0 1 1 9.218 5 4.223 4.223 0 0 1 5 9.218z" fill="#ff7043"/></svg><svg height="10" viewBox="0 0 10 10" width="10" x="51" y="236"><title>ok_10-10</title><path d="M5 0a5 5 0 1 0 5 5 5 5 0 0 0-5-5zm0 9.218A4.218 4.218 0 1 1 9.218 5 4.223 4.223 0 0 1 5 9.218z" fill="#00c853"/><path d="M7.794 3.55l-.637-.637a.193.193 0 0 0-.272 0l-2.65 2.65-1.127-1.127a.193.193 0 0 0-.273 0l-.636.636a.193.193 0 0 0 0 .273l1.9 1.899a.193.193 0 0 0 .272 0l3.423-3.422a.193.193 0 0 0 0-.273" fill="#00c853"/></svg><svg height="9.995" viewBox="0 0 10 10" width="9.995" x="66" y="236"><title>search</title><path d="M9.75 8.57L7.58 6.396c-.013-.01-.026-.019-.038-.03a4.109 4.109 0 1 0-1.175 1.175l.03.037L8.57 9.75a.835.835 0 0 0 1.18-1.18zM4.11 6.793A2.685 2.685 0 1 1 6.793 4.11 2.685 2.685 0 0 1 4.11 6.794z" fill="#3b3b3b"/></svg><svg height="9.99" viewBox="0 0 7 10" width="6.25" x="83" y="50"><title>next_inert</title><path d="M0 9.99L6.25 5 0 0v9.99z" fill="#bebfbf"/></svg><svg height="9.99" viewBox="0 0 7 10" width="6.25" x="83" y="65"><title>next_hover</title><path d="M0 9.99L6.25 5 0 0v9.99z" fill="#41bdc8"/></svg><svg height="9.99" viewBox="0 0 7 10" width="6.25" x="122" y="89"><title>next</title><path d="M0 9.99L6.25 5 0 0v9.99z" fill="#474747"/></svg><svg height="5" viewBox="0 0 10 5" width="9" x="198" y="178"><title>arrow_drop</title><path fill="none" d="M0 0h9v5H0z"/><path d="M4.078 4.716L.226 1.026A.584.584 0 0 1 .2.201L.226.176a.648.648 0 0 1 .887 0L4.52 3.44 7.93.176a.647.647 0 0 1 .887 0A.582.582 0 0 1 8.843 1l-.027.027-3.852 3.69a.647.647 0 0 1-.886 0" fill="#888988"/></svg><svg height="5" viewBox="0 0 10 5" width="9" x="173" y="155"><title>arrow_drop_white</title><path fill="none" d="M0 0h9v5H0z"/><path d="M4.078 4.716L.226 1.026A.584.584 0 0 1 .2.201L.226.176a.648.648 0 0 1 .887 0L4.52 3.44 7.93.176a.647.647 0 0 1 .887 0A.582.582 0 0 1 8.843 1l-.027.027-3.852 3.69a.647.647 0 0 1-.886 0" fill="#fff"/></svg><svg height="9" viewBox="0 0 7 9" width="7" x="122" y="104"><title>prc_bottom</title><path fill="#F00" d="M7 5.273L6.006 4.27 3.507 6.813.998 4.28l-.99 1.184L3.511 9 7 5.273z"/><path fill="#F00" d="M6.992 1.003L5.998 0 3.499 2.542.99.01 0 1.016l3.503 3.536 3.489-3.549z"/></svg><svg height="9" viewBox="0 0 7 9" width="7" x="81" y="236"><title>prc_top</title><path fill="#50c0d9" d="M0 3.722l.993 1.006 2.506-2.54 2.507 2.539.993-1.184L3.499 0 0 3.722z"/><path fill="#50c0d9" d="M.001 7.995L.994 9 3.5 6.461l2.507 2.538L7 7.993 3.5 4.45.001 7.995z"/></svg><svg height="4.983" viewBox="0 0 8 5" width="7.041" x="93" y="236"><title>desc</title><path d="M6.992.179a.351.351 0 0 1 0 .358L3.836 4.804a.368.368 0 0 1-.631 0L.049.537a.353.353 0 0 1 0-.358A.366.366 0 0 1 .364 0h6.312a.367.367 0 0 1 .316.179z" fill="#3b3b3b"/></svg><svg height="5.014" viewBox="0 0 7 6" width="6.789" x="261" y="5"><title>arrow_select</title><path d="M6.742.18a.368.368 0 0 1 0 .36L3.7 4.834a.348.348 0 0 1-.609 0L.047.54a.366.366 0 0 1 0-.36.351.351 0 0 1 .3-.18h6.087a.349.349 0 0 1 .308.18z" fill="#474747"/></svg><svg height="5.014" viewBox="0 0 7 6" width="6.789" x="261" y="16"><title>arrow_select</title><path d="M6.742.18a.368.368 0 0 1 0 .36L3.7 4.834a.348.348 0 0 1-.609 0L.047.54a.366.366 0 0 1 0-.36.351.351 0 0 1 .3-.18h6.087a.349.349 0 0 1 .308.18z" fill="#41bdc8"/></svg><svg height="5.014" viewBox="0 0 7 6" width="6.789" x="261" y="26"><title>arrow_select_hover_top</title><path d="M.047 4.834a.368.368 0 0 1 0-.36L3.09.18a.348.348 0 0 1 .609 0l3.043 4.294a.366.366 0 0 1 0 .36.351.351 0 0 1-.3.18H.355a.349.349 0 0 1-.308-.18z" fill="#41bdc8"/></svg><svg height="5" viewBox="0 0 4 5" width="3.216" x="261" y="36"><title>arrow_breadcrumbs</title><path d="M.711 0l2.505 2.5L.711 5 0 4.291 1.798 2.5.003.709z" fill="#636363"/></svg></svg>