<svg xmlns="http://www.w3.org/2000/svg" width="20" height="20" viewBox="0 0 20 20"><circle fill="none" stroke="#4B4B4B" stroke-width="1.5" stroke-miterlimit="10" cx="10" cy="10" r="9"/><path fill="#4B4B4B" d="M13.1 13.5v-1.1c0-1.5-1.3-2.4-2.1-2.9.8-.5 2.1-1.4 2.1-2.9V5.5c.3-.1.4-.4.4-.7 0-.5-.4-.8-.9-.8H7.9c-.5 0-.9.4-.9.8 0 .3.2.5.4.7v1.1c0 1.5 1.3 2.4 2.1 2.9-.8.5-2.1 1.4-2.1 2.9v1.1c-.2.1-.4.4-.4.7 0 .4.4.8.9.8h4.6c.5 0 .9-.4.9-.8.1-.3-.1-.6-.3-.7zM8.5 6.6v-.9c0-.1.1-.3.3-.3h3c.1 0 .3.1.3.3v.9c0 1-1.1 1.7-1.6 2h-.4c-.5-.3-1.6-1-1.6-2zm3.5 6.7c0 .1-.1.3-.3.3h-3c-.1 0-.3-.1-.3-.3v-.9c0-1 1.1-1.7 1.6-2h.4c.5.3 1.6 1 1.6 2v.9zm-1.8-2c-.8.5-1.2 1-1.2 1.4v.3h2.4v-.3c.1-.4-.4-1-1.2-1.4zm.9-4.1V7H9.4v.2c0 .3.3.7.9 1 .5-.3.8-.7.8-1z"/></svg>